<svg width="90" height="90" viewBox="0 0 90 90" fill="none" xmlns="http://www.w3.org/2000/svg">
<rect width="90" height="90" rx="45" fill="#00934C"/>
<path d="M30 63.75H15C13.9375 63.75 13.0475 63.39 12.33 62.67C11.61 61.9525 11.25 61.0625 11.25 60C11.25 58.9375 11.61 58.0462 12.33 57.3262C13.0475 56.6087 13.9375 56.25 15 56.25H30V48.75H15C13.9375 48.75 13.0475 48.39 12.33 47.67C11.61 46.9525 11.25 46.0625 11.25 45V30C11.25 28.9375 11.61 28.0463 12.33 27.3263C13.0475 26.6088 13.9375 26.25 15 26.25H33.75C34.8125 26.25 35.7038 26.6088 36.4238 27.3263C37.1413 28.0463 37.5 28.9375 37.5 30C37.5 31.0625 37.1413 31.9525 36.4238 32.67C35.7038 33.39 34.8125 33.75 33.75 33.75H18.75V41.25H30C32.0625 41.25 33.8288 41.9837 35.2987 43.4513C36.7663 44.9212 37.5 46.6875 37.5 48.75V56.25C37.5 58.3125 36.7663 60.0788 35.2987 61.5488C33.8288 63.0163 32.0625 63.75 30 63.75ZM52.5 63.75C50.4375 63.75 48.6725 63.0163 47.205 61.5488C45.735 60.0788 45 58.3125 45 56.25V33.75C45 31.6875 45.735 29.9212 47.205 28.4512C48.6725 26.9837 50.4375 26.25 52.5 26.25H75C76.0625 26.25 76.9525 26.6088 77.67 27.3263C78.39 28.0463 78.75 28.9375 78.75 30C78.75 31.0625 78.39 31.9525 77.67 32.67C76.9525 33.39 76.0625 33.75 75 33.75H52.5V56.25H71.25V48.75H65.625C64.5625 48.75 63.6725 48.39 62.955 47.67C62.235 46.9525 61.875 46.0625 61.875 45C61.875 43.9375 62.235 43.0462 62.955 42.3262C63.6725 41.6087 64.5625 41.25 65.625 41.25H75C76.0625 41.25 76.9525 41.6087 77.67 42.3262C78.39 43.0462 78.75 43.9375 78.75 45V56.25C78.75 58.3125 78.0163 60.0788 76.5488 61.5488C75.0788 63.0163 73.3125 63.75 71.25 63.75H52.5Z" fill="white"/>
</svg>
