<svg width="90" height="90" viewBox="0 0 90 90" fill="none" xmlns="http://www.w3.org/2000/svg">
<rect width="90" height="90" rx="45" fill="#00934C"/>
<path d="M40.8194 22.7917C41.4 23.3722 42.3472 23.4333 43.0194 22.9139C46.4722 20.1639 50.5972 18.6667 54.7222 18.6667C58.8472 18.6667 62.9722 20.1639 66.4556 22.9139C67.0972 23.4333 68.0444 23.3722 68.6556 22.7917L68.7778 22.6389C69.45 21.9667 69.4194 20.8361 68.6861 20.1944C64.6222 16.7417 59.6722 15 54.7222 15C49.7722 15 44.8222 16.7417 40.7583 20.1944C40.025 20.8361 39.9639 21.9361 40.6667 22.6389L40.8194 22.7917ZM46.0139 25.1139C45.25 25.725 45.2194 26.8861 45.8917 27.5583L46.0139 27.6806C46.625 28.2917 47.5417 28.2917 48.2139 27.8028C50.1389 26.3361 52.4306 25.6944 54.7222 25.6944C57.0139 25.6944 59.3056 26.3361 61.2306 27.7722C61.9028 28.2917 62.85 28.2611 63.4306 27.65L63.5528 27.5278C64.2556 26.825 64.1944 25.6944 63.4306 25.0833C60.8944 23.1278 57.8083 22.0278 54.7222 22.0278C51.6361 22.0278 48.55 23.1278 46.0139 25.1139ZM63.8889 45.5556H57.7778V36.3889C57.7778 34.7083 56.4028 33.3333 54.7222 33.3333C53.0417 33.3333 51.6667 34.7083 51.6667 36.3889V45.5556H21.1111C17.75 45.5556 15 48.3056 15 51.6667V63.8889C15 67.25 17.75 70 21.1111 70H63.8889C67.25 70 70 67.25 70 63.8889V51.6667C70 48.3056 67.25 45.5556 63.8889 45.5556ZM30.2778 60.8333H24.1667V54.7222H30.2778V60.8333ZM40.9722 60.8333H34.8611V54.7222H40.9722V60.8333ZM51.6667 60.8333H45.5556V54.7222H51.6667V60.8333Z" fill="white"/>
</svg>
