<svg width="600" height="455" viewBox="0 0 600 455" fill="none" xmlns="http://www.w3.org/2000/svg">
<g clip-path="url(#clip0_648_254)" filter="url(#filter0_d_648_254)">
<path d="M469.559 3.22693H290C289.995 2.89977 289.871 2.58784 289.656 2.35835C289.44 2.12886 289.15 2.00015 288.848 1.99997H281.776C281.474 2.00011 281.184 2.12879 280.969 2.3583C280.754 2.5878 280.63 2.89975 280.625 3.22693H278.893C278.888 2.89977 278.765 2.58784 278.549 2.35835C278.334 2.12886 278.044 2.00015 277.742 1.99997H270.67C270.368 2.00015 270.078 2.12886 269.863 2.35835C269.647 2.58784 269.524 2.89977 269.519 3.22693H263.217C259.56 3.23138 256.054 4.8069 253.469 7.60785C250.883 10.4088 249.428 14.2064 249.424 18.1676V18.3147C249.402 18.3133 249.382 18.3077 249.36 18.3077H249.198C249.046 18.3076 248.896 18.34 248.757 18.4027C248.617 18.4655 248.49 18.5575 248.382 18.6735C248.275 18.7895 248.19 18.9272 248.132 19.0788C248.074 19.2303 248.045 19.3928 248.045 19.5568V34.1682C248.045 34.3322 248.074 34.4947 248.132 34.6462C248.19 34.7978 248.275 34.9355 248.382 35.0515C248.49 35.1675 248.617 35.2595 248.757 35.3223C248.896 35.3851 249.046 35.4174 249.198 35.4174H249.36C249.382 35.4174 249.402 35.4117 249.424 35.4103V172.435C249.428 176.396 250.883 180.194 253.469 182.995C256.054 185.796 259.56 187.371 263.217 187.376H469.559C473.216 187.371 476.722 185.796 479.307 182.995C481.893 180.194 483.348 176.396 483.352 172.435V18.1676C483.348 14.2065 481.893 10.4089 479.307 7.60792C476.722 4.80698 473.216 3.23143 469.559 3.22693ZM479.2 172.435C479.197 175.204 478.181 177.858 476.373 179.816C474.566 181.774 472.115 182.876 469.559 182.879H263.217C260.661 182.876 258.21 181.774 256.403 179.816C254.595 177.859 253.579 175.204 253.576 172.435V18.1676C253.579 15.3987 254.595 12.7441 256.403 10.7862C258.21 8.82833 260.661 7.72703 263.217 7.72392H469.559C472.115 7.72709 474.566 8.82842 476.373 10.7863C478.181 12.7442 479.197 15.3987 479.2 18.1676V172.435Z" fill="#CCCCCC"/>
<path d="M469.559 185.377H263.217C260.05 185.373 257.013 184.008 254.773 181.582C252.533 179.156 251.273 175.866 251.269 172.435V18.1676C251.273 14.7364 252.533 11.4467 254.773 9.02048C257.013 6.59422 260.05 5.22945 263.217 5.22559H469.559C472.726 5.22943 475.763 6.59419 478.003 9.02045C480.243 11.4467 481.503 14.7363 481.507 18.1676V172.435C481.503 175.866 480.243 179.156 478.003 181.582C475.763 184.008 472.726 185.373 469.559 185.377Z" fill="#E6E6E6"/>
<path d="M469.622 174.951H263.154C262.457 174.95 261.788 174.65 261.295 174.116C260.802 173.582 260.525 172.857 260.524 172.102V18.5001C260.525 17.7449 260.803 17.0209 261.296 16.4869C261.789 15.9529 262.457 15.6525 263.154 15.6517H469.622C470.319 15.6525 470.987 15.9529 471.48 16.4869C471.973 17.0209 472.251 17.7449 472.252 18.5001V172.102C472.251 172.857 471.973 173.582 471.48 174.116C470.987 174.65 470.319 174.95 469.622 174.951Z" fill="white"/>
<path d="M255.943 96.1033C256.488 96.1033 256.93 95.6246 256.93 95.034C256.93 94.4434 256.488 93.9646 255.943 93.9646C255.397 93.9646 254.955 94.4434 254.955 95.034C254.955 95.6246 255.397 96.1033 255.943 96.1033Z" fill="white"/>
<path d="M338.147 35.9767H294.286C290.845 35.9809 287.546 37.4633 285.113 40.0987C282.68 42.734 281.312 46.3071 281.308 50.034V54.3284C281.218 54.3015 281.123 54.2977 281.032 54.3173C280.94 54.3368 280.854 54.3791 280.78 54.4409C280.706 54.5027 280.646 54.5823 280.606 54.6733C280.565 54.7644 280.545 54.8644 280.546 54.9655V58.2679C280.545 58.369 280.565 58.4691 280.606 58.5601C280.646 58.6512 280.706 58.7307 280.78 58.7925C280.854 58.8543 280.94 58.8966 281.032 58.9162C281.123 58.9357 281.218 58.9319 281.308 58.9051V63.9054C281.218 63.8785 281.123 63.8747 281.032 63.8942C280.94 63.9137 280.854 63.9561 280.78 64.0179C280.706 64.0797 280.646 64.1592 280.606 64.2503C280.565 64.3413 280.545 64.4413 280.546 64.5425V72.7985C280.545 72.8996 280.565 72.9996 280.606 73.0907C280.646 73.1817 280.706 73.2613 280.78 73.3231C280.854 73.3849 280.94 73.4272 281.032 73.4467C281.123 73.4663 281.218 73.4624 281.308 73.4356V76.4545C281.218 76.4276 281.123 76.4238 281.032 76.4433C280.94 76.4629 280.854 76.5052 280.78 76.567C280.706 76.6288 280.646 76.7083 280.606 76.7994C280.565 76.8904 280.545 76.9905 280.546 77.0916V85.3476C280.545 85.4487 280.565 85.5488 280.606 85.6398C280.646 85.7309 280.706 85.8104 280.78 85.8722C280.854 85.934 280.94 85.9763 281.032 85.9959C281.123 86.0154 281.218 86.0116 281.308 85.9847V173.169C281.312 176.896 282.68 180.469 285.113 183.105C287.546 185.74 290.845 187.222 294.286 187.227H338.147C341.587 187.222 344.886 185.74 347.319 183.105C349.752 180.469 351.121 176.896 351.124 173.169V50.034C351.121 46.3071 349.752 42.734 347.319 40.0987C344.886 37.4633 341.587 35.9809 338.147 35.9767ZM348.381 173.169C348.377 176.108 347.298 178.926 345.38 181.004C343.461 183.082 340.86 184.251 338.147 184.254H294.286C291.572 184.251 288.971 183.082 287.053 181.004C285.134 178.926 284.055 176.108 284.052 173.169V50.034C284.055 47.0951 285.134 44.2775 287.053 42.1993C288.971 40.1212 291.572 38.9522 294.286 38.9489H338.147C340.86 38.9522 343.461 40.1212 345.38 42.1993C347.298 44.2775 348.377 47.0951 348.381 50.034V173.169Z" fill="#CCCCCC"/>
<path d="M338.147 185.906H294.286C291.168 185.902 288.18 184.559 285.975 182.171C283.771 179.783 282.531 176.546 282.528 173.169V50.034C282.531 46.6573 283.771 43.42 285.975 41.0323C288.18 38.6446 291.168 37.3015 294.286 37.2977H338.147C341.264 37.3015 344.253 38.6446 346.457 41.0323C348.662 43.42 349.902 46.6573 349.905 50.034V173.169C349.902 176.546 348.662 179.783 346.457 182.171C344.253 184.559 341.264 185.902 338.147 185.906Z" fill="#E6E6E6"/>
<path d="M339.231 183.924H293.202C291.099 183.922 289.084 183.016 287.597 181.405C286.11 179.795 285.274 177.612 285.271 175.334V47.8692C285.274 45.5918 286.11 43.4083 287.597 41.7979C289.084 40.1876 291.099 39.2817 293.202 39.2791H299.205C299.552 39.2795 299.885 39.4293 300.131 39.6954C300.377 39.9616 300.515 40.3225 300.515 40.6989C300.516 41.8109 300.925 42.877 301.651 43.6634C302.377 44.4497 303.361 44.892 304.387 44.8932H327.436C328.462 44.892 329.446 44.4497 330.172 43.6634C330.898 42.8771 331.307 41.8109 331.308 40.6989C331.308 40.3225 331.446 39.9616 331.692 39.6954C331.938 39.4293 332.271 39.2795 332.618 39.2791H339.231C341.333 39.2817 343.349 40.1876 344.836 41.7979C346.323 43.4083 347.159 45.5918 347.161 47.8692V175.334C347.159 177.612 346.323 179.795 344.836 181.405C343.349 183.016 341.333 183.922 339.231 183.924Z" fill="white"/>
<path d="M318.198 42.1687H312.71C312.548 42.1687 312.393 42.0991 312.279 41.9753C312.165 41.8514 312.1 41.6834 312.1 41.5082C312.1 41.3331 312.165 41.1651 312.279 41.0412C312.393 40.9173 312.548 40.8477 312.71 40.8477H318.198C318.359 40.8482 318.514 40.9179 318.628 41.0417C318.742 41.1656 318.806 41.3333 318.806 41.5082C318.806 41.6831 318.742 41.8509 318.628 41.9747C318.514 42.0985 318.359 42.1683 318.198 42.1687Z" fill="white"/>
<path d="M322.009 42.0036C322.177 42.0036 322.314 41.8557 322.314 41.6733C322.314 41.491 322.177 41.3431 322.009 41.3431C321.841 41.3431 321.704 41.491 321.704 41.6733C321.704 41.8557 321.841 42.0036 322.009 42.0036Z" fill="white"/>
<path d="M322.318 73.2076L322.382 74.744C329.633 74.3921 338.03 75.0765 346.966 76.6921V75.134C338.016 73.5311 329.601 72.8543 322.318 73.2076Z" fill="#CCCCCC"/>
<path d="M313.302 103.301C313.245 103.889 313.199 104.48 313.164 105.075C313.089 106.246 313.052 107.425 313.052 108.614C313.057 119.683 316.361 130.454 322.472 139.326C328.582 148.198 337.173 154.697 346.966 157.856V59.3633C337.973 62.2594 329.974 67.9796 323.981 75.8005C317.989 83.6214 314.272 93.1916 313.302 103.301Z" fill="#FE5E00"/>
<path d="M289.636 73.5249C290.152 73.5249 290.571 73.0715 290.571 72.5123C290.571 71.953 290.152 71.4997 289.636 71.4997C289.12 71.4997 288.701 71.953 288.701 72.5123C288.701 73.0715 289.12 73.5249 289.636 73.5249Z" fill="#CCCCCC"/>
<path d="M287.643 114.146C288.663 114.146 289.49 113.251 289.49 112.146C289.49 111.041 288.663 110.145 287.643 110.145C286.623 110.145 285.797 111.041 285.797 112.146C285.797 113.251 286.623 114.146 287.643 114.146Z" fill="#CCCCCC"/>
<path d="M322.422 61.2041C323.16 61.2041 323.759 60.5554 323.759 59.7553C323.759 58.9551 323.16 58.3064 322.422 58.3064C321.683 58.3064 321.084 58.9551 321.084 59.7553C321.084 60.5554 321.683 61.2041 322.422 61.2041Z" fill="#CCCCCC"/>
<path d="M291.991 141.555C292.58 141.555 293.058 141.038 293.058 140.399C293.058 139.761 292.58 139.244 291.991 139.244C291.401 139.244 290.924 139.761 290.924 140.399C290.924 141.038 291.401 141.555 291.991 141.555Z" fill="#CCCCCC"/>
<path d="M313.546 157.74C314.184 157.74 314.701 157.18 314.701 156.488C314.701 155.797 314.184 155.237 313.546 155.237C312.908 155.237 312.39 155.797 312.39 156.488C312.39 157.18 312.908 157.74 313.546 157.74Z" fill="#CCCCCC"/>
<path d="M347.141 30.4462H344.861V27.9758H343.637V30.4462H341.355V31.7723H343.637V34.2427H344.861V31.7723H347.141V30.4462Z" fill="#CCCCCC"/>
<path opacity="0.1" d="M330.573 104.298C332.773 104.298 334.558 102.365 334.558 99.9811C334.558 97.5972 332.773 95.6646 330.573 95.6646C328.372 95.6646 326.588 97.5972 326.588 99.9811C326.588 102.365 328.372 104.298 330.573 104.298Z" fill="black"/>
<path opacity="0.1" d="M332.565 134.71C334.766 134.71 336.55 132.777 336.55 130.393C336.55 128.009 334.766 126.076 332.565 126.076C330.364 126.076 328.58 128.009 328.58 130.393C328.58 132.777 330.364 134.71 332.565 134.71Z" fill="black"/>
<path d="M314.985 103.331C310.095 99.7746 306.452 96.2657 304.159 92.902C301.872 89.5464 301.056 86.515 301.734 83.892C302.413 81.269 304.565 79.1385 308.129 77.5597C311.702 75.977 316.498 75.0297 322.382 74.7441L322.318 73.2076C309.718 73.8193 301.923 77.4663 300.367 83.4769C298.812 89.4875 303.722 96.992 314.193 104.608C322.732 110.819 334.169 116.555 346.966 121.097V119.478C334.471 115.006 323.321 109.395 314.985 103.331Z" fill="#CCCCCC"/>
<path opacity="0.1" d="M314.984 104.562C314.406 104.141 313.845 103.72 313.301 103.301C313.245 103.889 313.199 104.48 313.164 105.075C313.501 105.33 313.844 105.584 314.193 105.838C322.732 112.049 334.169 117.785 346.966 122.328V120.709C334.471 116.236 323.322 110.625 314.984 104.562Z" fill="black"/>
<path d="M367.866 79.7906C362.282 78.0951 356.746 76.7142 351.376 75.6512V77.2142C356.622 78.262 362.027 79.6151 367.483 81.2715C384.852 86.5447 400.568 94.2295 410.603 102.355L411.453 101.123C401.284 92.8885 385.397 85.113 367.866 79.7906Z" fill="#CCCCCC"/>
<path d="M409.561 108.614C409.557 100.879 407.94 93.2438 404.833 86.2789C401.726 79.314 397.207 73.1987 391.614 68.3888C386.021 63.5788 379.498 60.1983 372.531 58.4992C365.563 56.8001 358.332 56.8262 351.376 58.5756V158.649C361.835 161.287 372.811 160.002 382.509 155.007C392.207 150.011 400.054 141.599 404.766 131.147C405.011 130.606 405.246 130.061 405.472 129.51C408.177 122.934 409.57 115.814 409.561 108.614Z" fill="#FE5E00"/>
<path d="M363.394 47.9829C363.694 47.9829 363.937 47.7194 363.937 47.3943C363.937 47.0692 363.694 46.8057 363.394 46.8057C363.093 46.8057 362.85 47.0692 362.85 47.3943C362.85 47.7194 363.093 47.9829 363.394 47.9829Z" fill="#F2F2F2"/>
<path d="M400.164 52.2592C400.844 52.2592 401.395 51.6623 401.395 50.926C401.395 50.1896 400.844 49.5927 400.164 49.5927C399.484 49.5927 398.933 50.1896 398.933 50.926C398.933 51.6623 399.484 52.2592 400.164 52.2592Z" fill="#CCCCCC"/>
<path d="M443.818 108.424C444.922 108.424 445.816 107.455 445.816 106.26C445.816 105.064 444.922 104.095 443.818 104.095C442.714 104.095 441.82 105.064 441.82 106.26C441.82 107.455 442.714 108.424 443.818 108.424Z" fill="#CCCCCC"/>
<path d="M428.192 72.6155C428.665 72.6155 429.049 72.1996 429.049 71.6867C429.049 71.1738 428.665 70.758 428.192 70.758C427.718 70.758 427.334 71.1738 427.334 71.6867C427.334 72.1996 427.718 72.6155 428.192 72.6155Z" fill="#CCCCCC"/>
<path d="M425.191 102.799C425.664 102.799 426.048 102.383 426.048 101.87C426.048 101.358 425.664 100.942 425.191 100.942C424.717 100.942 424.333 101.358 424.333 101.87C424.333 102.383 424.717 102.799 425.191 102.799Z" fill="#CCCCCC"/>
<path d="M401.709 164.113H400.276V162.562H399.508V164.113H398.076V164.945H399.508V166.496H400.276V164.945H401.709V164.113Z" fill="#CCCCCC"/>
<path d="M434.76 156.173H433.69V155.014H433.115V156.173H432.045V156.796H433.115V157.955H433.69V156.796H434.76V156.173Z" fill="#CCCCCC"/>
<path opacity="0.1" d="M362.85 72.7085C365.051 72.7085 366.835 70.776 366.835 68.392C366.835 66.008 365.051 64.0755 362.85 64.0755C360.649 64.0755 358.865 66.008 358.865 68.392C358.865 70.776 360.649 72.7085 362.85 72.7085Z" fill="black"/>
<path opacity="0.1" d="M362.85 110.969C365.051 110.969 366.835 109.036 366.835 106.652C366.835 104.268 365.051 102.336 362.85 102.336C360.649 102.336 358.865 104.268 358.865 106.652C358.865 109.036 360.649 110.969 362.85 110.969Z" fill="black"/>
<path opacity="0.1" d="M384.224 87.8163C386.425 87.8163 388.209 85.8838 388.209 83.4998C388.209 81.1159 386.425 79.1833 384.224 79.1833C382.023 79.1833 380.239 81.1159 380.239 83.4998C380.239 85.8838 382.023 87.8163 384.224 87.8163Z" fill="black"/>
<path opacity="0.1" d="M397.447 117.051C399.648 117.051 401.432 115.118 401.432 112.735C401.432 110.351 399.648 108.418 397.447 108.418C395.246 108.418 393.462 110.351 393.462 112.735C393.462 115.118 395.246 117.051 397.447 117.051Z" fill="black"/>
<path d="M420.404 110.776C418.533 107.666 415.522 104.418 411.453 101.124L410.603 102.355C418.509 108.758 422.192 114.878 420.973 119.588C420.295 122.211 418.143 124.341 414.579 125.92C411.005 127.503 406.21 128.45 400.326 128.736C399.076 128.796 397.793 128.826 396.478 128.826C384.965 128.826 371.083 126.517 356.89 122.208C355.029 121.643 353.191 121.052 351.376 120.435V122.046C353.067 122.615 354.777 123.162 356.507 123.689C370.824 128.036 384.84 130.364 396.485 130.364C397.818 130.364 399.122 130.334 400.39 130.272C412.99 129.66 420.785 126.013 422.34 120.003C423.062 117.215 422.411 114.11 420.404 110.776Z" fill="#CCCCCC"/>
<path opacity="0.1" d="M400.326 129.965C399.077 130.026 397.794 130.056 396.477 130.056C384.966 130.056 371.082 127.748 356.89 123.438C355.029 122.873 353.191 122.282 351.376 121.665V123.276C353.066 123.845 354.777 124.393 356.507 124.919C370.824 129.266 384.839 131.594 396.485 131.594C397.818 131.594 399.123 131.563 400.39 131.502C401.922 131.428 403.381 131.31 404.766 131.147C405.011 130.606 405.246 130.061 405.472 129.51C403.862 129.724 402.147 129.876 400.326 129.965Z" fill="black"/>
<path d="M384.209 71.1201C387.078 71.1201 389.404 68.6003 389.404 65.492C389.404 62.3837 387.078 59.8639 384.209 59.8639C381.339 59.8639 379.013 62.3837 379.013 65.492C379.013 68.6003 381.339 71.1201 384.209 71.1201Z" fill="white"/>
<path d="M384.224 57.2083C382.255 57.2083 380.366 58.0558 378.973 59.5644C377.58 61.0731 376.798 63.1192 376.798 65.2527C376.798 69.6955 384.224 84.2847 384.224 84.2847C384.224 84.2847 391.651 69.6955 391.651 65.2527C391.651 63.1192 390.868 61.0731 389.476 59.5644C388.083 58.0558 386.194 57.2083 384.224 57.2083ZM384.224 69.1768C383.543 69.1768 382.878 68.9582 382.312 68.5486C381.746 68.1389 381.305 67.5567 381.045 66.8755C380.784 66.1943 380.716 65.4448 380.849 64.7216C380.982 63.9985 381.309 63.3342 381.791 62.8129C382.272 62.2915 382.885 61.9365 383.553 61.7926C384.22 61.6488 384.912 61.7226 385.541 62.0048C386.17 62.2869 386.708 62.7647 387.086 63.3778C387.464 63.9908 387.666 64.7116 387.666 65.4489C387.666 66.4376 387.303 67.3858 386.658 68.0849C386.012 68.7841 385.137 69.1768 384.224 69.1768Z" fill="#3F3D56"/>
<path d="M362.776 91.522C365.645 91.522 367.972 89.0022 367.972 85.8939C367.972 82.7856 365.645 80.2658 362.776 80.2658C359.906 80.2658 357.58 82.7856 357.58 85.8939C357.58 89.0022 359.906 91.522 362.776 91.522Z" fill="white"/>
<path d="M362.791 77.6102C360.822 77.6102 358.933 78.4577 357.54 79.9663C356.147 81.475 355.365 83.5211 355.365 85.6546C355.365 90.0974 362.791 104.687 362.791 104.687C362.791 104.687 370.218 90.0974 370.218 85.6546C370.218 83.5211 369.435 81.475 368.043 79.9663C366.65 78.4577 364.761 77.6102 362.791 77.6102ZM362.791 89.5787C362.111 89.5787 361.445 89.3601 360.879 88.9504C360.313 88.5408 359.872 87.9586 359.612 87.2774C359.351 86.5962 359.283 85.8467 359.416 85.1235C359.549 84.4004 359.876 83.7361 360.358 83.2148C360.839 82.6934 361.452 82.3384 362.12 82.1945C362.787 82.0507 363.479 82.1245 364.108 82.4067C364.737 82.6888 365.275 83.1666 365.653 83.7797C366.031 84.3927 366.233 85.1135 366.233 85.8508C366.233 86.8395 365.87 87.7877 365.225 88.4868C364.579 89.1859 363.704 89.5787 362.791 89.5787Z" fill="#3F3D56"/>
<path d="M362.776 55.2911C365.645 55.2911 367.972 52.7713 367.972 49.663C367.972 46.5547 365.645 44.0349 362.776 44.0349C359.906 44.0349 357.58 46.5547 357.58 49.663C357.58 52.7713 359.906 55.2911 362.776 55.2911Z" fill="white"/>
<path d="M362.791 41.3792C360.822 41.3792 358.933 42.2268 357.54 43.7354C356.147 45.244 355.365 47.2902 355.365 49.4237C355.365 53.8665 362.791 68.4556 362.791 68.4556C362.791 68.4556 370.218 53.8665 370.218 49.4237C370.218 47.2902 369.435 45.244 368.043 43.7354C366.65 42.2268 364.761 41.3792 362.791 41.3792ZM362.791 53.3478C362.111 53.3478 361.445 53.1291 360.879 52.7195C360.313 52.3099 359.872 51.7277 359.612 51.0465C359.351 50.3653 359.283 49.6157 359.416 48.8926C359.549 48.1695 359.876 47.5052 360.358 46.9838C360.839 46.4625 361.452 46.1074 362.12 45.9636C362.787 45.8197 363.479 45.8936 364.108 46.1757C364.737 46.4579 365.275 46.9357 365.653 47.5488C366.031 48.1618 366.233 48.8826 366.233 49.6199C366.233 50.1094 366.144 50.5942 365.971 51.0465C365.798 51.4988 365.544 51.9097 365.225 52.2559C364.905 52.6021 364.526 52.8767 364.108 53.064C363.691 53.2514 363.243 53.3478 362.791 53.3478Z" fill="#CCCCCC"/>
<path d="M397.523 98.9089C400.392 98.9089 402.719 96.3891 402.719 93.2808C402.719 90.1725 400.392 87.6527 397.523 87.6527C394.653 87.6527 392.327 90.1725 392.327 93.2808C392.327 96.3891 394.653 98.9089 397.523 98.9089Z" fill="white"/>
<path d="M397.539 84.997C395.569 84.997 393.68 85.8446 392.287 87.3532C390.894 88.8618 390.112 90.908 390.112 93.0415C390.112 97.4843 397.539 112.073 397.539 112.073C397.539 112.073 404.965 97.4843 404.965 93.0415C404.965 90.908 404.183 88.8618 402.79 87.3532C401.397 85.8446 399.508 84.997 397.539 84.997ZM397.539 96.9656C396.858 96.9656 396.193 96.7469 395.627 96.3373C395.061 95.9277 394.619 95.3455 394.359 94.6643C394.099 93.9831 394.03 93.2335 394.163 92.5104C394.296 91.7872 394.624 91.123 395.105 90.6016C395.586 90.0803 396.2 89.7252 396.867 89.5814C397.535 89.4375 398.227 89.5114 398.856 89.7935C399.485 90.0757 400.022 90.5535 400.4 91.1666C400.778 91.7796 400.98 92.5004 400.98 93.2377C400.98 94.2264 400.618 95.1746 399.972 95.8737C399.327 96.5728 398.451 96.9656 397.539 96.9656Z" fill="#CCCCCC"/>
<path d="M330.626 86.2457C333.496 86.2457 335.822 83.7259 335.822 80.6175C335.822 77.5092 333.496 74.9894 330.626 74.9894C327.757 74.9894 325.431 77.5092 325.431 80.6175C325.431 83.7259 327.757 86.2457 330.626 86.2457Z" fill="white"/>
<path d="M330.642 72.3338C328.672 72.3338 326.784 73.1813 325.391 74.69C323.998 76.1986 323.216 78.2447 323.216 80.3782C323.216 84.821 330.642 99.4102 330.642 99.4102C330.642 99.4102 338.069 84.8211 338.069 80.3782C338.069 78.2447 337.286 76.1986 335.893 74.69C334.501 73.1813 332.612 72.3338 330.642 72.3338ZM330.642 84.3023C329.961 84.3023 329.296 84.0837 328.73 83.6741C328.164 83.2644 327.723 82.6822 327.463 82.001C327.202 81.3199 327.134 80.5703 327.267 79.8472C327.399 79.124 327.727 78.4598 328.209 77.9384C328.69 77.417 329.303 77.062 329.971 76.9181C330.638 76.7743 331.33 76.8481 331.959 77.1303C332.588 77.4124 333.126 77.8903 333.504 78.5033C333.882 79.1164 334.084 79.8371 334.084 80.5744C334.084 81.5631 333.721 82.5113 333.076 83.2105C332.43 83.9096 331.555 84.3023 330.642 84.3023Z" fill="#CCCCCC"/>
<path d="M332.575 116.848C335.445 116.848 337.771 114.329 337.771 111.22C337.771 108.112 335.445 105.592 332.575 105.592C329.705 105.592 327.379 108.112 327.379 111.22C327.379 114.329 329.705 116.848 332.575 116.848Z" fill="white"/>
<path d="M332.591 102.937C330.621 102.937 328.732 103.784 327.339 105.293C325.946 106.801 325.164 108.848 325.164 110.981C325.164 115.424 332.591 130.013 332.591 130.013C332.591 130.013 340.017 115.424 340.017 110.981C340.017 108.848 339.235 106.801 337.842 105.293C336.449 103.784 334.56 102.937 332.591 102.937ZM332.591 114.905C331.91 114.905 331.245 114.687 330.679 114.277C330.113 113.867 329.671 113.285 329.411 112.604C329.151 111.923 329.082 111.173 329.215 110.45C329.348 109.727 329.676 109.063 330.157 108.541C330.638 108.02 331.252 107.665 331.919 107.521C332.587 107.377 333.279 107.451 333.908 107.733C334.537 108.015 335.074 108.493 335.452 109.106C335.83 109.719 336.032 110.44 336.032 111.177C336.032 112.166 335.67 113.114 335.024 113.813C334.379 114.512 333.503 114.905 332.591 114.905Z" fill="#3F3D56"/>
</g>
<g clip-path="url(#clip1_648_254)">
<path d="M74.7559 204.403C75.5841 194.731 77.8717 185.271 81.5272 176.403C82.546 173.935 83.6674 171.521 84.8913 169.161C84.9526 169.038 84.9674 168.894 84.9325 168.759C84.8975 168.624 84.8156 168.509 84.704 168.438C84.5924 168.367 84.4598 168.346 84.3342 168.38C84.2086 168.413 84.0999 168.498 84.0308 168.616C79.5799 177.209 76.4617 186.538 74.801 196.228C74.339 198.934 73.9918 201.659 73.7594 204.403C73.7003 205.095 74.6972 205.091 74.7559 204.403Z" fill="#E6E6E6"/>
<path d="M87.305 170.895C90.7906 170.895 93.6163 167.83 93.6163 164.051C93.6163 160.271 90.7906 157.207 87.305 157.207C83.8193 157.207 80.9937 160.271 80.9937 164.051C80.9937 167.83 83.8193 170.895 87.305 170.895Z" fill="#E6E6E6"/>
<path d="M75.4016 204.585C75.9389 198.31 77.4229 192.173 79.7944 186.42C80.4554 184.819 81.1828 183.253 81.9768 181.722C82.0166 181.642 82.0262 181.548 82.0036 181.461C81.9809 181.373 81.9278 181.299 81.8554 181.253C81.783 181.207 81.6969 181.193 81.6155 181.215C81.534 181.236 81.4634 181.291 81.4186 181.368C78.5311 186.943 76.5082 192.995 75.4308 199.281C75.1311 201.037 74.9059 202.805 74.7551 204.585C74.7167 205.034 75.3635 205.031 75.4016 204.585Z" fill="#E6E6E6"/>
<path d="M83.5427 182.846C85.804 182.846 87.6372 180.859 87.6372 178.406C87.6372 175.954 85.804 173.966 83.5427 173.966C81.2814 173.966 79.4482 175.954 79.4482 178.406C79.4482 180.859 81.2814 182.846 83.5427 182.846Z" fill="#E6E6E6"/>
<path d="M74.5856 204.166C71.4501 198.86 69.1395 193.031 67.746 186.913C67.359 185.21 67.0445 183.49 66.8024 181.753C66.7883 181.664 66.7428 181.583 66.6752 181.53C66.6077 181.476 66.5235 181.452 66.4404 181.464C66.3572 181.476 66.2817 181.523 66.2297 181.594C66.1776 181.666 66.1532 181.756 66.1615 181.847C67.0468 188.168 68.8843 194.289 71.6004 199.964C72.3598 201.549 73.185 203.093 74.0759 204.597C74.3004 204.977 74.8087 204.543 74.5856 204.166Z" fill="#E6E6E6"/>
<path d="M66.1562 182.535C68.4175 182.535 70.2507 180.547 70.2507 178.095C70.2507 175.643 68.4175 173.655 66.1562 173.655C63.8949 173.655 62.0618 175.643 62.0618 178.095C62.0618 180.547 63.8949 182.535 66.1562 182.535Z" fill="#E6E6E6"/>
<path d="M62.0159 208.094V199.371C62.0168 198.503 62.3349 197.672 62.9005 197.058C63.466 196.445 64.2328 196.1 65.0326 196.099H83.8036C84.6034 196.1 85.3702 196.445 85.9358 197.058C86.5013 197.672 86.8194 198.503 86.8203 199.371V208.094C86.8194 208.961 86.5013 209.793 85.9358 210.406C85.3702 211.02 84.6034 211.365 83.8036 211.366H65.0326C64.2328 211.365 63.466 211.02 62.9005 210.406C62.3349 209.793 62.0168 208.961 62.0159 208.094Z" fill="#F2F2F2"/>
<path d="M83.1332 152.481H75.0885C74.2887 152.48 73.5219 152.135 72.9564 151.522C72.3908 150.909 72.0727 150.077 72.0718 149.21V113.589C72.0727 112.722 72.3908 111.89 72.9564 111.277C73.5219 110.664 74.2887 110.319 75.0885 110.318H83.1332C83.933 110.319 84.6999 110.664 85.2654 111.277C85.831 111.89 86.1491 112.722 86.15 113.589V149.21C86.1491 150.077 85.831 150.909 85.2654 151.522C84.6999 152.135 83.933 152.48 83.1332 152.481Z" fill="#F2F2F2"/>
<path d="M85.8148 117.224H72.407V120.132H85.8148V117.224Z" fill="#CCCCCC"/>
<path d="M85.8148 139.76H72.407V142.667H85.8148V139.76Z" fill="#CCCCCC"/>
<path d="M103.245 152.481H95.2001C94.4003 152.48 93.6335 152.135 93.0679 151.522C92.5024 150.909 92.1843 150.077 92.1833 149.21V113.589C92.1843 112.722 92.5024 111.89 93.0679 111.277C93.6335 110.664 94.4003 110.319 95.2001 110.318H103.245C104.045 110.319 104.811 110.664 105.377 111.277C105.943 111.89 106.261 112.722 106.262 113.589V149.21C106.261 150.077 105.943 150.909 105.377 151.522C104.811 152.135 104.045 152.48 103.245 152.481Z" fill="#F2F2F2"/>
<path d="M105.926 117.224H92.5186V120.132H105.926V117.224Z" fill="#CCCCCC"/>
<path d="M105.926 139.76H92.5186V142.667H105.926V139.76Z" fill="#CCCCCC"/>
<path d="M123.357 152.481H115.312C114.512 152.48 113.745 152.135 113.18 151.522C112.614 150.909 112.296 150.077 112.295 149.21V113.589C112.296 112.722 112.614 111.89 113.18 111.277C113.745 110.664 114.512 110.319 115.312 110.318H123.357C124.156 110.319 124.923 110.664 125.489 111.277C126.054 111.89 126.372 112.722 126.373 113.589V149.21C126.372 150.077 126.054 150.909 125.489 151.522C124.923 152.135 124.156 152.48 123.357 152.481Z" fill="#F2F2F2"/>
<path d="M126.038 117.224H112.63V120.132H126.038V117.224Z" fill="#CCCCCC"/>
<path d="M126.038 139.76H112.63V142.667H126.038V139.76Z" fill="#CCCCCC"/>
<path d="M134.083 211.366H126.038C125.238 211.365 124.472 211.02 123.906 210.406C123.341 209.793 123.022 208.961 123.021 208.094V172.473C123.022 171.606 123.341 170.774 123.906 170.161C124.472 169.548 125.238 169.203 126.038 169.202H134.083C134.883 169.203 135.65 169.548 136.215 170.161C136.781 170.774 137.099 171.606 137.1 172.473V208.094C137.099 208.961 136.781 209.793 136.215 210.406C135.65 211.02 134.883 211.365 134.083 211.366Z" fill="#F2F2F2"/>
<path d="M136.765 176.108H123.357V179.016H136.765V176.108Z" fill="#CCCCCC"/>
<path d="M136.765 198.644H123.357V201.552H136.765V198.644Z" fill="#CCCCCC"/>
<path d="M154.195 211.366H146.15C145.35 211.365 144.583 211.02 144.018 210.406C143.452 209.793 143.134 208.961 143.133 208.094V172.473C143.134 171.606 143.452 170.774 144.018 170.161C144.583 169.548 145.35 169.203 146.15 169.202H154.195C154.994 169.203 155.761 169.548 156.327 170.161C156.892 170.774 157.21 171.606 157.211 172.473V208.094C157.21 208.961 156.892 209.793 156.327 210.406C155.761 211.02 154.994 211.365 154.195 211.366Z" fill="#F2F2F2"/>
<path d="M156.876 176.108H143.468V179.016H156.876V176.108Z" fill="#CCCCCC"/>
<path d="M156.876 198.644H143.468V201.552H156.876V198.644Z" fill="#CCCCCC"/>
<path d="M174.306 211.366H166.262C165.462 211.365 164.695 211.02 164.129 210.406C163.564 209.793 163.246 208.961 163.245 208.094V172.473C163.246 171.606 163.564 170.774 164.129 170.161C164.695 169.548 165.462 169.203 166.262 169.202H174.306C175.106 169.203 175.873 169.548 176.439 170.161C177.004 170.774 177.322 171.606 177.323 172.473V208.094C177.322 208.961 177.004 209.793 176.439 210.406C175.873 211.02 175.106 211.365 174.306 211.366Z" fill="#F2F2F2"/>
<path d="M176.988 176.108H163.58V179.016H176.988V176.108Z" fill="#CCCCCC"/>
<path d="M176.988 198.644H163.58V201.552H176.988V198.644Z" fill="#CCCCCC"/>
<path d="M81.122 270.25H73.0773C72.2775 270.249 71.5107 269.904 70.9451 269.29C70.3796 268.677 70.0614 267.846 70.0605 266.978V231.357C70.0614 230.49 70.3796 229.658 70.9451 229.045C71.5107 228.432 72.2775 228.087 73.0773 228.086H81.122C81.9218 228.087 82.6886 228.432 83.2542 229.045C83.8197 229.658 84.1379 230.49 84.1388 231.357V266.978C84.1379 267.846 83.8197 268.677 83.2542 269.29C82.6886 269.904 81.9218 270.249 81.122 270.25Z" fill="#F2F2F2"/>
<path d="M83.8036 234.992H70.3958V237.9H83.8036V234.992Z" fill="#CCCCCC"/>
<path d="M83.8036 257.528H70.3958V260.436H83.8036V257.528Z" fill="#CCCCCC"/>
<path d="M101.234 270.25H93.1891C92.3893 270.249 91.6225 269.904 91.057 269.29C90.4914 268.677 90.1733 267.846 90.1724 266.978V231.357C90.1733 230.49 90.4914 229.658 91.057 229.045C91.6225 228.432 92.3893 228.087 93.1891 228.086H101.234C102.034 228.087 102.8 228.432 103.366 229.045C103.932 229.658 104.25 230.49 104.251 231.357V266.978C104.25 267.846 103.932 268.677 103.366 269.29C102.8 269.904 102.034 270.249 101.234 270.25Z" fill="#F2F2F2"/>
<path d="M103.915 234.992H90.5076V237.9H103.915V234.992Z" fill="#CCCCCC"/>
<path d="M103.915 257.528H90.5076V260.436H103.915V257.528Z" fill="#CCCCCC"/>
<path d="M121.345 270.25H113.301C112.501 270.249 111.734 269.904 111.169 269.29C110.603 268.677 110.285 267.846 110.284 266.978V231.357C110.285 230.49 110.603 229.658 111.169 229.045C111.734 228.432 112.501 228.087 113.301 228.086H121.345C122.145 228.087 122.912 228.432 123.478 229.045C124.043 229.658 124.361 230.49 124.362 231.357V266.978C124.361 267.846 124.043 268.677 123.478 269.29C122.912 269.904 122.145 270.249 121.345 270.25Z" fill="#F2F2F2"/>
<path d="M124.027 234.992H110.619V237.9H124.027V234.992Z" fill="#CCCCCC"/>
<path d="M124.027 257.528H110.619V260.436H124.027V257.528Z" fill="#CCCCCC"/>
<path d="M143.468 152.481H135.424C134.624 152.48 133.857 152.135 133.292 151.522C132.726 150.909 132.408 150.077 132.407 149.21V113.589C132.408 112.722 132.726 111.89 133.292 111.277C133.857 110.664 134.624 110.319 135.424 110.318H143.468C144.268 110.319 145.035 110.664 145.601 111.277C146.166 111.89 146.484 112.722 146.485 113.589V149.21C146.484 150.077 146.166 150.909 145.601 151.522C145.035 152.135 144.268 152.48 143.468 152.481Z" fill="#F2F2F2"/>
<path d="M146.15 117.224H132.742V120.132H146.15V117.224Z" fill="#CCCCCC"/>
<path d="M146.15 139.76H132.742V142.667H146.15V139.76Z" fill="#CCCCCC"/>
<path d="M163.58 152.481H155.535C154.735 152.48 153.969 152.135 153.403 151.522C152.838 150.909 152.519 150.077 152.519 149.21V113.589C152.519 112.722 152.838 111.89 153.403 111.277C153.969 110.664 154.735 110.319 155.535 110.318H163.58C164.38 110.319 165.147 110.664 165.712 111.277C166.278 111.89 166.596 112.722 166.597 113.589V149.21C166.596 150.077 166.278 150.909 165.712 151.522C165.147 152.135 164.38 152.48 163.58 152.481Z" fill="#F2F2F2"/>
<path d="M166.262 117.224H152.854V120.132H166.262V117.224Z" fill="#CCCCCC"/>
<path d="M166.262 139.76H152.854V142.667H166.262V139.76Z" fill="#CCCCCC"/>
<path d="M183.692 152.481H175.647C174.847 152.48 174.081 152.135 173.515 151.522C172.949 150.909 172.631 150.077 172.63 149.21V113.589C172.631 112.722 172.949 111.89 173.515 111.277C174.081 110.664 174.847 110.319 175.647 110.318H183.692C184.492 110.319 185.258 110.664 185.824 111.277C186.39 111.89 186.708 112.722 186.709 113.589V149.21C186.708 150.077 186.39 150.909 185.824 151.522C185.258 152.135 184.492 152.48 183.692 152.481Z" fill="#F2F2F2"/>
<path d="M186.373 117.224H172.966V120.132H186.373V117.224Z" fill="#CCCCCC"/>
<path d="M186.373 139.76H172.966V142.667H186.373V139.76Z" fill="#CCCCCC"/>
<path d="M203.804 152.481H195.759C194.959 152.48 194.192 152.135 193.627 151.522C193.061 150.909 192.743 150.077 192.742 149.21V113.589C192.743 112.722 193.061 111.89 193.627 111.277C194.192 110.664 194.959 110.319 195.759 110.318H203.804C204.603 110.319 205.37 110.664 205.936 111.277C206.501 111.89 206.819 112.722 206.82 113.589V149.21C206.819 150.077 206.501 150.909 205.936 151.522C205.37 152.135 204.603 152.48 203.804 152.481Z" fill="#F2F2F2"/>
<path d="M206.485 117.224H193.077V120.132H206.485V117.224Z" fill="#CCCCCC"/>
<path d="M206.485 139.76H193.077V142.667H206.485V139.76Z" fill="#CCCCCC"/>
<path d="M233.932 153.572H42.8701C42.6923 153.572 42.5218 153.495 42.3961 153.359C42.2703 153.223 42.1997 153.038 42.1997 152.845C42.1997 152.652 42.2703 152.467 42.3961 152.331C42.5218 152.195 42.6923 152.118 42.8701 152.118H233.932C234.109 152.118 234.28 152.195 234.406 152.331C234.531 152.467 234.602 152.652 234.602 152.845C234.602 153.038 234.531 153.223 234.406 153.359C234.28 153.495 234.109 153.572 233.932 153.572Z" fill="#CCCCCC"/>
<path d="M233.932 212.456H42.8701C42.6923 212.456 42.5218 212.379 42.3961 212.243C42.2703 212.107 42.1997 211.922 42.1997 211.729C42.1997 211.536 42.2703 211.351 42.3961 211.215C42.5218 211.079 42.6923 211.002 42.8701 211.002H233.932C234.109 211.002 234.28 211.079 234.406 211.215C234.531 211.351 234.602 211.536 234.602 211.729C234.602 211.922 234.531 212.107 234.406 212.243C234.28 212.379 234.109 212.456 233.932 212.456Z" fill="#CCCCCC"/>
<path d="M233.932 271.34H42.8701C42.6923 271.34 42.5218 271.263 42.3961 271.127C42.2703 270.991 42.1997 270.806 42.1997 270.613C42.1997 270.42 42.2703 270.235 42.3961 270.099C42.5218 269.963 42.6923 269.886 42.8701 269.886H233.932C234.109 269.886 234.28 269.963 234.406 270.099C234.531 270.235 234.602 270.42 234.602 270.613C234.602 270.806 234.531 270.991 234.406 271.127C234.28 271.263 234.109 271.34 233.932 271.34Z" fill="#CCCCCC"/>
<path d="M222.617 385.46C222.617 379.84 203.107 375.283 179.041 375.283C154.975 375.283 135.466 379.84 135.466 385.46C135.466 389.063 143.487 392.226 155.578 394.034V449.797C155.578 451.05 156.037 452.252 156.854 453.138C157.671 454.024 158.779 454.522 159.935 454.522C161.091 454.522 162.199 454.024 163.016 453.138C163.834 452.252 164.293 451.05 164.293 449.797V395.039C168.9 395.426 173.864 395.638 179.041 395.638C184.219 395.638 189.183 395.426 193.79 395.039V449.797C193.79 451.05 194.249 452.252 195.066 453.138C195.883 454.024 196.992 454.522 198.147 454.522C199.303 454.522 200.411 454.024 201.229 453.138C202.046 452.252 202.505 451.05 202.505 449.797V394.034C214.596 392.226 222.617 389.063 222.617 385.46Z" fill="#CCCCCC"/>
<path d="M214.232 445.379H222.451L226.361 411.003H214.231L214.232 445.379Z" fill="#A0616A"/>
<path d="M238.302 453.654L212.471 453.655L212.471 442.833L228.322 442.832C230.968 442.832 233.507 443.972 235.379 446.002C237.25 448.031 238.302 450.784 238.302 453.654Z" fill="#2F2E41"/>
<path d="M227.062 440.406L234.904 437.737L229.144 403.668L217.57 407.606L227.062 440.406Z" fill="#A0616A"/>
<path d="M252.312 440.486L227.667 448.873L224.678 438.547L239.802 433.401C242.327 432.542 245.064 432.805 247.41 434.134C249.756 435.463 251.52 437.748 252.312 440.486Z" fill="#2F2E41"/>
<path d="M221.563 424.583L206.528 381.786C203.155 382.645 174.868 389.432 165.394 378.494C162.147 374.745 161.514 369.313 163.512 362.35L169.041 354.815L169.213 354.825C171.303 354.944 220.454 357.932 223.824 374.009C226.664 387.563 231.853 412.832 233.375 420.255C233.529 421.024 233.424 421.827 233.077 422.519C232.731 423.211 232.167 423.744 231.488 424.023L225.442 426.481C225.105 426.619 224.748 426.689 224.388 426.689C223.776 426.689 223.178 426.488 222.674 426.112C222.17 425.736 221.783 425.203 221.563 424.583Z" fill="#2F2E41"/>
<path d="M212.848 429.672L197.813 386.875C194.44 387.734 166.153 394.52 156.679 383.583C153.432 379.834 152.799 374.402 154.797 367.438L160.326 359.904L160.498 359.914C162.588 360.033 211.739 363.02 215.109 379.097C217.949 392.651 223.138 417.921 224.66 425.343C224.814 426.112 224.709 426.916 224.362 427.608C224.016 428.299 223.452 428.833 222.773 429.112L216.727 431.57C216.39 431.708 216.033 431.778 215.673 431.778C215.061 431.778 214.463 431.577 213.959 431.201C213.455 430.824 213.067 430.291 212.848 429.672Z" fill="#2F2E41"/>
<path d="M233.167 327.081C232.944 327.403 232.746 327.744 232.573 328.1L199.509 331.877L194.75 324.801L183.963 331.194L193.311 348.366L233.861 337.154C234.884 338.236 236.187 338.954 237.596 339.213C239.004 339.473 240.452 339.261 241.747 338.606C243.042 337.951 244.122 336.884 244.845 335.547C245.567 334.211 245.896 332.667 245.79 331.122C245.683 329.577 245.146 328.104 244.248 326.898C243.35 325.692 242.136 324.812 240.765 324.373C239.395 323.934 237.934 323.959 236.577 324.442C235.219 324.926 234.03 325.846 233.167 327.081Z" fill="#A0616A"/>
<path d="M154.584 369.698C154.131 369.344 153.778 368.862 153.563 368.304C153.348 367.746 153.279 367.134 153.365 366.537C155.23 353.202 153.084 334.1 150.955 320.423C150.519 317.648 150.689 314.801 151.45 312.11C152.211 309.419 153.543 306.959 155.339 304.926C157.135 302.894 159.345 301.346 161.792 300.406C164.239 299.466 166.855 299.161 169.43 299.515C171.671 299.836 173.891 300.31 176.076 300.935C179.706 301.927 182.917 304.228 185.181 307.46C187.445 310.693 188.627 314.665 188.533 318.722C188.215 331.92 190.686 348.387 191.763 354.853C191.837 355.298 191.825 355.753 191.729 356.193C191.633 356.632 191.454 357.045 191.204 357.406C190.959 357.763 190.648 358.06 190.291 358.28C189.933 358.499 189.538 358.634 189.129 358.678C177.191 359.999 164.317 366.312 157.705 369.958C157.28 370.196 156.809 370.32 156.331 370.322C155.702 370.32 155.091 370.101 154.584 369.698Z" fill="#FE5E00"/>
<path d="M186.81 335.304C186.441 335.147 186.105 334.912 185.82 334.613C185.535 334.314 185.308 333.956 185.152 333.561L178.494 316.883C178.091 315.875 177.875 314.791 177.858 313.693C177.842 312.595 178.025 311.504 178.397 310.482C178.77 309.461 179.324 308.529 180.029 307.74C180.733 306.951 181.575 306.32 182.504 305.884C183.434 305.448 184.434 305.214 185.446 305.197C186.459 305.18 187.465 305.38 188.407 305.784C189.349 306.189 190.208 306.791 190.935 307.556C191.662 308.321 192.242 309.233 192.644 310.242L199.302 326.92C199.619 327.716 199.631 328.616 199.337 329.423C199.043 330.229 198.466 330.876 197.732 331.221L189.119 335.264C188.756 335.436 188.365 335.528 187.968 335.535C187.572 335.542 187.178 335.464 186.81 335.304Z" fill="#FE5E00"/>
<path d="M201.658 325.627C201.436 325.949 201.238 326.29 201.065 326.646L168.001 330.423L163.242 323.347L152.455 329.74L161.803 346.912L202.353 335.7C203.376 336.782 204.679 337.5 206.087 337.76C207.496 338.019 208.944 337.807 210.239 337.152C211.534 336.497 212.614 335.431 213.336 334.094C214.058 332.757 214.388 331.213 214.282 329.668C214.175 328.123 213.637 326.65 212.74 325.444C211.842 324.239 210.627 323.358 209.257 322.919C207.887 322.481 206.426 322.505 205.068 322.988C203.711 323.472 202.522 324.392 201.658 325.627Z" fill="#A0616A"/>
<path d="M155.302 336.031C154.933 335.874 154.596 335.639 154.312 335.34C154.027 335.041 153.8 334.683 153.644 334.288L146.986 317.61C146.583 316.602 146.367 315.518 146.35 314.42C146.333 313.322 146.516 312.231 146.889 311.209C147.261 310.188 147.816 309.256 148.52 308.467C149.225 307.678 150.066 307.047 150.996 306.611C151.926 306.175 152.925 305.941 153.938 305.924C154.951 305.907 155.957 306.107 156.899 306.511C157.84 306.916 158.699 307.518 159.426 308.283C160.153 309.048 160.734 309.96 161.136 310.969L167.794 327.647C168.111 328.443 168.123 329.343 167.829 330.15C167.535 330.956 166.957 331.603 166.224 331.948L157.611 335.991C157.247 336.163 156.856 336.255 156.46 336.262C156.064 336.269 155.67 336.191 155.302 336.031Z" fill="#FE5E00"/>
<path d="M168.205 293.841C177.299 293.841 184.671 285.847 184.671 275.986C184.671 266.125 177.299 258.131 168.205 258.131C159.112 258.131 151.74 266.125 151.74 275.986C151.74 285.847 159.112 293.841 168.205 293.841Z" fill="#A0616A"/>
<path d="M156.433 288.24C156.362 288.016 156.34 287.777 156.367 287.542C156.395 287.307 156.472 287.082 156.592 286.885C156.712 286.687 156.872 286.521 157.06 286.401C157.248 286.281 157.459 286.209 157.677 286.191C158.123 286.217 158.56 286.341 158.96 286.555C159.361 286.77 159.717 287.07 160.008 287.438C160.603 288.183 161.297 288.829 162.066 289.355C162.863 289.79 163.943 289.728 164.397 288.898C164.824 288.118 164.532 287.075 164.273 286.169C163.617 283.866 163.249 281.477 163.181 279.067C163.106 276.377 163.456 273.57 164.83 271.471C166.602 268.764 169.771 267.736 172.771 267.81C175.77 267.885 178.721 268.889 181.692 269.523C182.717 269.743 183.923 269.855 184.609 268.993C185.338 268.076 185.071 266.593 184.76 265.355C183.955 262.144 183.101 258.824 181.23 256.23C179.208 253.535 176.319 251.771 173.145 251.294C170.098 250.885 167.005 251.265 164.12 252.405C159.42 254.011 155.284 257.136 152.266 261.36C149.154 265.853 147.81 271.498 148.526 277.063C149.226 281.909 151.594 286.287 155.153 289.315L156.433 288.24Z" fill="#2F2E41"/>
<path d="M93.5637 331.225C94.392 321.552 96.6795 312.093 100.335 303.224C101.354 300.756 102.475 298.342 103.699 295.983C103.761 295.859 103.775 295.715 103.74 295.58C103.705 295.445 103.624 295.33 103.512 295.259C103.4 295.189 103.268 295.168 103.142 295.201C103.017 295.234 102.908 295.319 102.839 295.437C98.3878 304.031 95.2696 313.359 93.6089 323.049C93.1469 325.755 92.7997 328.48 92.5672 331.225C92.5081 331.917 93.505 331.912 93.5637 331.225Z" fill="#3F3D56"/>
<path d="M106.113 297.716C109.598 297.716 112.424 294.652 112.424 290.872C112.424 287.092 109.598 284.028 106.113 284.028C102.627 284.028 99.8015 287.092 99.8015 290.872C99.8015 294.652 102.627 297.716 106.113 297.716Z" fill="#FE5E00"/>
<path d="M94.2094 331.406C94.7467 325.131 96.2308 318.995 98.6023 313.241C99.2632 311.64 99.9907 310.074 100.785 308.543C100.825 308.463 100.834 308.37 100.811 308.282C100.789 308.195 100.736 308.12 100.663 308.074C100.591 308.028 100.505 308.015 100.423 308.036C100.342 308.058 100.271 308.113 100.226 308.19C97.339 313.765 95.3161 319.816 94.2387 326.103C93.939 327.858 93.7137 329.626 93.5629 331.406C93.5246 331.855 94.1713 331.853 94.2094 331.406Z" fill="#3F3D56"/>
<path d="M102.351 309.668C104.612 309.668 106.445 307.68 106.445 305.228C106.445 302.776 104.612 300.788 102.351 300.788C100.089 300.788 98.2561 302.776 98.2561 305.228C98.2561 307.68 100.089 309.668 102.351 309.668Z" fill="#FE5E00"/>
<path d="M93.3935 330.987C90.2579 325.681 87.9473 319.853 86.5539 313.734C86.1669 312.031 85.8523 310.311 85.6102 308.575C85.5962 308.485 85.5506 308.405 85.4831 308.351C85.4155 308.297 85.3313 308.274 85.2482 308.286C85.1651 308.298 85.0895 308.344 85.0375 308.416C84.9855 308.487 84.9611 308.578 84.9694 308.668C85.8547 314.99 87.6921 321.111 90.4083 326.786C91.1677 328.37 91.9928 329.914 92.8837 331.418C93.1082 331.798 93.6165 331.364 93.3935 330.987Z" fill="#3F3D56"/>
<path d="M84.9641 309.356C87.2254 309.356 89.0585 307.368 89.0585 304.916C89.0585 302.464 87.2254 300.476 84.9641 300.476C82.7028 300.476 80.8696 302.464 80.8696 304.916C80.8696 307.368 82.7028 309.356 84.9641 309.356Z" fill="#FE5E00"/>
<path d="M80.8237 334.916V326.192C80.8246 325.325 81.1428 324.493 81.7083 323.88C82.2739 323.267 83.0407 322.922 83.8405 322.921H102.611C103.411 322.922 104.178 323.267 104.744 323.88C105.309 324.493 105.627 325.325 105.628 326.192V334.916C105.627 335.783 105.309 336.614 104.744 337.228C104.178 337.841 103.411 338.186 102.611 338.187H83.8405C83.0407 338.186 82.2739 337.841 81.7083 337.228C81.1428 336.614 80.8246 335.783 80.8237 334.916Z" fill="#CCCCCC"/>
<path d="M249.097 332.392H196.136C194.841 332.392 193.79 333.531 193.79 334.936C193.79 336.342 194.841 337.481 196.136 337.481H249.097C250.393 337.481 251.444 336.342 251.444 334.936C251.444 333.531 250.393 332.392 249.097 332.392Z" fill="#CCCCCC"/>
<path d="M284.628 337.481H224.963C223.808 337.479 222.7 336.981 221.883 336.095C221.066 335.209 220.607 334.008 220.605 332.756V297.134C220.607 295.882 221.066 294.68 221.883 293.795C222.7 292.909 223.808 292.41 224.963 292.409H284.628C285.783 292.41 286.891 292.909 287.708 293.795C288.524 294.68 288.984 295.882 288.985 297.134V332.756C288.984 334.008 288.524 335.209 287.708 336.095C286.891 336.981 285.783 337.479 284.628 337.481Z" fill="#CCCCCC"/>
<path d="M254.796 319.307C257.017 319.307 258.818 317.354 258.818 314.945C258.818 312.536 257.017 310.583 254.796 310.583C252.574 310.583 250.773 312.536 250.773 314.945C250.773 317.354 252.574 319.307 254.796 319.307Z" fill="white"/>
<path d="M436.472 385.46C436.472 379.84 416.962 375.283 392.896 375.283C368.83 375.283 349.321 379.84 349.321 385.46C349.321 389.063 357.342 392.226 369.433 394.034V449.797C369.433 451.05 369.892 452.252 370.709 453.138C371.526 454.024 372.634 454.522 373.79 454.522C374.946 454.522 376.054 454.024 376.871 453.138C377.689 452.252 378.148 451.05 378.148 449.797V395.039C382.755 395.426 387.719 395.638 392.896 395.638C398.074 395.638 403.038 395.426 407.645 395.039V449.797C407.645 451.05 408.104 452.252 408.921 453.138C409.738 454.024 410.847 454.522 412.002 454.522C413.158 454.522 414.266 454.024 415.084 453.138C415.901 452.252 416.36 451.05 416.36 449.797V394.034C428.451 392.226 436.472 389.063 436.472 385.46Z" fill="#CCCCCC"/>
<path d="M397.714 292.305C408.081 292.305 416.485 283.192 416.485 271.95C416.485 260.709 408.081 251.595 397.714 251.595C387.347 251.595 378.943 260.709 378.943 271.95C378.943 283.192 387.347 292.305 397.714 292.305Z" fill="#2F2E41"/>
<path d="M351.001 446.106H342.782L338.873 411.73H351.003L351.001 446.106Z" fill="#FFB8B8"/>
<path d="M336.912 443.56H352.762V454.382H326.932C326.932 452.961 327.19 451.553 327.691 450.24C328.193 448.927 328.928 447.734 329.855 446.729C330.781 445.724 331.882 444.927 333.092 444.383C334.303 443.839 335.601 443.56 336.912 443.56Z" fill="#2F2E41"/>
<path d="M338.171 441.132L330.33 438.464L336.09 404.395L347.663 408.333L338.171 441.132Z" fill="#FFB8B8"/>
<path d="M325.432 434.128L340.555 439.274L337.567 449.6L312.921 441.213C313.314 439.857 313.949 438.598 314.79 437.508C315.631 436.419 316.661 435.519 317.823 434.861C318.985 434.203 320.255 433.8 321.56 433.674C322.866 433.548 324.181 433.702 325.432 434.128Z" fill="#2F2E41"/>
<path d="M340.845 427.416C340.485 427.416 340.128 427.346 339.791 427.208L333.745 424.75C333.066 424.471 332.502 423.938 332.156 423.246C331.81 422.554 331.704 421.751 331.859 420.982C333.381 413.559 338.569 388.29 341.41 374.736C344.779 358.659 393.93 355.671 396.021 355.552L396.193 355.542L401.722 363.076C403.72 370.04 403.086 375.472 399.839 379.221C390.365 390.159 362.078 383.372 358.705 382.513L343.67 425.31C343.451 425.93 343.064 426.463 342.559 426.839C342.055 427.215 341.457 427.416 340.845 427.416Z" fill="#2F2E41"/>
<path d="M349.56 432.505C349.2 432.505 348.843 432.435 348.507 432.297L342.46 429.839C341.781 429.56 341.217 429.026 340.871 428.335C340.525 427.643 340.419 426.839 340.574 426.07C342.096 418.648 347.284 393.378 350.125 379.824C353.494 363.747 402.645 360.76 404.736 360.641L404.908 360.631L410.437 368.165C412.435 375.129 411.801 380.56 408.555 384.31C399.08 395.247 370.793 388.461 367.42 387.602L352.385 430.399C352.166 431.018 351.779 431.551 351.274 431.928C350.77 432.304 350.172 432.505 349.56 432.505Z" fill="#2F2E41"/>
<path d="M332.067 327.808C332.289 328.13 332.487 328.471 332.66 328.827L365.724 332.604L370.483 325.528L381.27 331.921L371.922 349.093L331.372 337.881C330.349 338.963 329.046 339.681 327.638 339.94C326.229 340.2 324.781 339.988 323.486 339.333C322.191 338.678 321.111 337.611 320.389 336.274C319.667 334.938 319.337 333.394 319.443 331.849C319.55 330.304 320.088 328.831 320.985 327.625C321.883 326.419 323.098 325.539 324.468 325.1C325.838 324.661 327.299 324.686 328.657 325.169C330.014 325.653 331.203 326.573 332.067 327.808Z" fill="#FFB8B8"/>
<path d="M408.902 371.049C408.424 371.047 407.953 370.922 407.528 370.685C400.917 367.039 388.042 360.726 376.104 359.405C375.696 359.361 375.3 359.226 374.942 359.006C374.585 358.787 374.274 358.49 374.029 358.133C373.779 357.772 373.6 357.359 373.504 356.92C373.408 356.48 373.396 356.025 373.47 355.58C374.547 349.114 377.019 332.647 376.7 319.449C376.606 315.391 377.789 311.42 380.053 308.187C382.317 304.955 385.527 302.653 389.157 301.662C391.343 301.037 393.562 300.563 395.803 300.242C398.378 299.888 400.994 300.193 403.441 301.133C405.888 302.073 408.098 303.621 409.894 305.653C411.69 307.686 413.022 310.146 413.783 312.837C414.545 315.528 414.714 318.375 414.278 321.15C412.149 334.827 410.003 353.929 411.869 367.264C411.954 367.861 411.886 368.473 411.67 369.031C411.455 369.589 411.102 370.071 410.649 370.425C410.143 370.828 409.531 371.047 408.902 371.049Z" fill="#FE5E00"/>
<path d="M377.312 336.263C376.9 336.262 376.492 336.17 376.114 335.991L367.501 331.948C366.768 331.603 366.191 330.956 365.896 330.15C365.602 329.343 365.615 328.443 365.931 327.647L372.589 310.969C372.991 309.96 373.572 309.048 374.299 308.283C375.026 307.518 375.885 306.916 376.827 306.511C377.768 306.107 378.774 305.907 379.787 305.924C380.8 305.941 381.8 306.175 382.729 306.611C383.659 307.047 384.5 307.678 385.205 308.467C385.909 309.256 386.464 310.188 386.836 311.209C387.209 312.231 387.392 313.322 387.375 314.42C387.359 315.518 387.143 316.602 386.739 317.61L380.082 334.288C379.847 334.874 379.46 335.373 378.969 335.724C378.477 336.074 377.901 336.262 377.312 336.263Z" fill="#FE5E00"/>
<path d="M397.028 294.568C406.122 294.568 413.494 286.574 413.494 276.713C413.494 266.852 406.122 258.858 397.028 258.858C387.935 258.858 380.563 266.852 380.563 276.713C380.563 286.574 387.935 294.568 397.028 294.568Z" fill="#FFB8B8"/>
<path d="M380.266 267.941C388.066 273.103 396.858 276.245 405.96 277.121L403.252 273.602C405.224 274.393 407.299 274.84 409.4 274.926C411.498 274.89 413.697 274.014 414.888 272.14C415.419 271.209 415.734 270.152 415.807 269.059C415.88 267.967 415.709 266.872 415.307 265.867C414.481 263.863 413.197 262.121 411.575 260.807C408.701 258.341 405.308 256.685 401.701 255.986C398.093 255.287 394.381 255.566 390.897 256.8C388.507 257.574 386.367 259.063 384.721 261.096C383.161 263.184 380.155 265.044 380.955 267.589L380.266 267.941Z" fill="#2F2E41"/>
<path d="M399.797 253.532C394.604 247.821 388.319 243.414 381.386 240.621C376.935 238.833 372.091 237.729 367.438 238.744C362.785 239.759 358.385 243.25 357.087 248.2C356.026 252.248 357.122 256.607 358.769 260.417C360.416 264.228 362.615 267.761 363.948 271.714C365.307 275.747 365.716 280.085 365.137 284.333C364.558 288.581 363.01 292.605 360.633 296.039C358.257 299.474 355.126 302.211 351.527 304.001C347.928 305.791 343.973 306.578 340.022 306.29C344.594 306.955 348.808 309.285 353.276 310.525C357.745 311.765 363.019 311.681 366.34 308.209C369.853 304.536 369.923 298.564 369.753 293.276L368.996 269.689C368.867 265.68 368.757 261.542 370.091 257.799C371.424 254.057 374.593 250.78 378.293 250.814C381.097 250.84 383.578 252.682 385.827 254.498C388.076 256.315 390.456 258.253 393.249 258.523C396.042 258.793 399.23 256.552 399.021 253.52" fill="#2F2E41"/>
<path d="M323.26 314.658L361.173 315.628L366.666 359.577L331.653 360.429L323.26 314.658Z" fill="#E6E6E6"/>
<path d="M363.575 326.354C363.797 326.676 363.996 327.017 364.168 327.373L397.232 331.15L401.992 324.074L412.779 330.467L403.43 347.639L362.88 336.427C361.857 337.509 360.555 338.227 359.146 338.486C357.737 338.746 356.289 338.534 354.994 337.879C353.7 337.224 352.619 336.157 351.897 334.821C351.175 333.484 350.845 331.94 350.952 330.395C351.058 328.85 351.596 327.377 352.494 326.171C353.391 324.966 354.606 324.085 355.976 323.646C357.347 323.208 358.808 323.232 360.165 323.715C361.522 324.199 362.712 325.119 363.575 326.354Z" fill="#FFB8B8"/>
<path d="M408.821 336.99C408.408 336.989 408.001 336.897 407.623 336.718L399.01 332.675C398.276 332.33 397.699 331.683 397.405 330.877C397.11 330.07 397.123 329.17 397.44 328.374L404.098 311.696C404.499 310.687 405.08 309.774 405.807 309.01C406.534 308.245 407.393 307.643 408.335 307.238C409.277 306.833 410.283 306.634 411.295 306.651C412.308 306.668 413.308 306.902 414.238 307.338C415.167 307.774 416.008 308.405 416.713 309.194C417.418 309.983 417.972 310.915 418.345 311.936C418.717 312.958 418.9 314.049 418.884 315.147C418.867 316.245 418.651 317.329 418.248 318.337L411.59 335.015C411.356 335.601 410.969 336.1 410.477 336.45C409.985 336.801 409.409 336.989 408.821 336.99Z" fill="#FE5E00"/>
<path d="M330.885 336.754H64.0692C62.9135 336.754 61.8052 337.252 60.988 338.138C60.1708 339.024 59.7117 340.226 59.7117 341.479C59.7117 342.732 60.1708 343.934 60.988 344.82C61.8052 345.707 62.9135 346.204 64.0692 346.204H71.7787V449.07C71.7787 450.323 72.2378 451.525 73.055 452.411C73.8722 453.297 74.9806 453.795 76.1362 453.795C77.2919 453.795 78.4003 453.297 79.2175 452.411C80.0347 451.525 80.4938 450.323 80.4938 449.07V355.284L129.346 451.3C129.925 452.383 130.877 453.172 131.992 453.495C133.107 453.817 134.295 453.647 135.294 453.021C136.294 452.396 137.023 451.365 137.323 450.157C137.623 448.948 137.468 447.66 136.893 446.575L85.8258 346.204H319.153V346.266L268.117 446.575C267.539 447.66 267.382 448.95 267.682 450.16C267.981 451.371 268.711 452.403 269.712 453.029C270.712 453.656 271.902 453.826 273.018 453.501C274.134 453.177 275.086 452.385 275.664 451.3L319.153 365.825V449.07C319.153 450.323 319.612 451.525 320.429 452.411C321.247 453.297 322.355 453.795 323.511 453.795C324.666 453.795 325.775 453.297 326.592 452.411C327.409 451.525 327.868 450.323 327.868 449.07V348.696L329.136 346.204H330.885C332.041 346.204 333.149 345.707 333.966 344.82C334.783 343.934 335.242 342.732 335.242 341.479C335.242 340.226 334.783 339.024 333.966 338.138C333.149 337.252 332.041 336.754 330.885 336.754Z" fill="#3F3D56"/>
<path d="M495.744 454.861H0.798113C0.586811 454.86 0.384378 454.769 0.235181 454.606C0.0859843 454.444 0.00219727 454.224 0.00219727 453.995C0.00219727 453.766 0.0859843 453.546 0.235181 453.384C0.384378 453.222 0.586811 453.13 0.798113 453.13H495.744C495.955 453.13 496.159 453.221 496.308 453.383C496.458 453.546 496.542 453.766 496.542 453.995C496.542 454.225 496.458 454.445 496.308 454.607C496.159 454.77 495.955 454.861 495.744 454.861Z" fill="#3F3D56"/>
</g>
<g clip-path="url(#clip2_648_254)">
<path d="M582.115 215.263C584.99 217.741 587.378 220.818 589.138 224.311C590.898 227.804 591.993 231.643 592.361 235.601C592.415 236.191 592.673 236.736 593.084 237.127C593.495 237.518 594.027 237.726 594.574 237.709L597.897 237.604C598.194 237.595 598.486 237.52 598.754 237.383C599.023 237.247 599.263 237.053 599.46 236.812C599.657 236.571 599.805 236.289 599.897 235.984C599.989 235.678 600.022 235.356 599.994 235.036C599.14 225.273 594.849 216.24 588.009 209.81C581.169 203.38 572.305 200.047 563.256 200.501C562.96 200.516 562.669 200.596 562.403 200.738C562.136 200.879 561.899 201.078 561.706 201.322C561.513 201.566 561.369 201.851 561.281 202.158C561.194 202.465 561.166 202.788 561.199 203.108L561.569 206.684C561.628 207.271 561.89 207.811 562.303 208.197C562.715 208.583 563.247 208.785 563.792 208.764C570.424 208.467 576.931 210.776 582.115 215.263Z" fill="#FE5E00"/>
<path d="M579.464 218.861C574.373 214.45 568.002 212.139 561.484 212.34C561.185 212.35 560.891 212.428 560.621 212.567C560.351 212.706 560.11 212.904 559.915 213.149C559.719 213.394 559.572 213.681 559.484 213.99C559.395 214.299 559.367 214.625 559.401 214.947L559.677 217.614C559.736 218.193 559.994 218.727 560.398 219.112C560.803 219.497 561.326 219.704 561.864 219.694C567.003 219.595 571.994 221.559 575.875 225.205C579.757 228.851 582.256 233.923 582.891 239.445C582.954 240.026 583.216 240.56 583.625 240.943C584.034 241.326 584.56 241.529 585.101 241.514L587.577 241.437C587.875 241.428 588.169 241.353 588.439 241.216C588.71 241.078 588.951 240.882 589.148 240.639C589.344 240.395 589.492 240.111 589.582 239.802C589.672 239.494 589.702 239.169 589.67 238.847C589.266 234.953 588.157 231.183 586.406 227.754C584.654 224.324 582.295 221.302 579.464 218.861Z" fill="#FE5E00"/>
<path d="M569.124 232.886C572.114 235.465 574.101 239.167 574.69 243.257C574.766 243.828 575.032 244.35 575.44 244.724C575.847 245.097 576.366 245.296 576.9 245.284L578.097 245.245C578.404 245.235 578.706 245.154 578.982 245.009C579.258 244.863 579.502 244.656 579.699 244.401C579.895 244.145 580.04 243.848 580.122 243.528C580.205 243.207 580.224 242.872 580.177 242.543C579.452 237.2 576.978 232.317 573.207 228.782C569.435 225.248 564.617 223.297 559.628 223.284C559.326 223.288 559.027 223.36 558.753 223.497C558.478 223.633 558.233 223.831 558.033 224.077C557.834 224.323 557.684 224.611 557.594 224.924C557.505 225.236 557.476 225.566 557.512 225.891L557.645 227.184C557.708 227.757 557.964 228.286 558.362 228.67C558.761 229.053 559.276 229.266 559.81 229.267C563.2 229.318 566.478 230.591 569.124 232.886Z" fill="#FE5E00"/>
<path d="M421.464 215.263C418.588 217.741 416.201 220.818 414.441 224.311C412.681 227.804 411.586 231.643 411.218 235.601C411.164 236.191 410.906 236.736 410.495 237.127C410.084 237.518 409.552 237.726 409.005 237.709L405.682 237.604C405.385 237.595 405.093 237.52 404.824 237.383C404.556 237.247 404.315 237.053 404.119 236.812C403.922 236.571 403.774 236.289 403.682 235.984C403.59 235.678 403.557 235.356 403.585 235.036C404.438 225.273 408.73 216.24 415.57 209.81C422.41 203.38 431.273 200.047 440.323 200.501C440.619 200.516 440.91 200.596 441.176 200.738C441.443 200.879 441.68 201.078 441.873 201.322C442.066 201.566 442.21 201.851 442.297 202.158C442.385 202.465 442.413 202.788 442.38 203.108L442.01 206.677C441.951 207.264 441.688 207.804 441.276 208.19C440.864 208.576 440.332 208.778 439.787 208.757C433.154 208.462 426.647 210.773 421.464 215.263Z" fill="#FE5E00"/>
<path d="M424.115 218.861C429.205 214.45 435.577 212.139 442.094 212.34C442.394 212.35 442.687 212.428 442.958 212.567C443.228 212.706 443.468 212.904 443.664 213.149C443.86 213.394 444.007 213.681 444.095 213.99C444.184 214.299 444.212 214.625 444.178 214.947L443.902 217.614C443.842 218.193 443.585 218.727 443.18 219.112C442.776 219.497 442.253 219.704 441.715 219.694C436.576 219.595 431.585 221.559 427.703 225.205C423.821 228.851 421.323 233.923 420.688 239.445C420.624 240.026 420.362 240.56 419.954 240.943C419.545 241.326 419.018 241.529 418.478 241.514L416.002 241.437C415.703 241.428 415.41 241.353 415.139 241.216C414.869 241.078 414.628 240.882 414.431 240.639C414.234 240.395 414.087 240.111 413.997 239.802C413.907 239.494 413.877 239.169 413.909 238.847C414.312 234.953 415.422 231.183 417.173 227.754C418.924 224.324 421.284 221.302 424.115 218.861Z" fill="#FE5E00"/>
<path d="M434.455 232.886C431.464 235.465 429.478 239.167 428.889 243.257C428.813 243.828 428.546 244.35 428.139 244.724C427.732 245.097 427.213 245.296 426.679 245.284L425.482 245.245C425.175 245.235 424.873 245.154 424.597 245.009C424.321 244.863 424.077 244.656 423.88 244.401C423.684 244.145 423.539 243.848 423.457 243.528C423.374 243.207 423.355 242.872 423.401 242.543C424.127 237.2 426.6 232.317 430.372 228.782C434.144 225.248 438.962 223.297 443.951 223.284C444.253 223.288 444.551 223.36 444.826 223.497C445.101 223.633 445.346 223.831 445.546 224.077C445.745 224.323 445.895 224.611 445.984 224.924C446.074 225.236 446.102 225.566 446.067 225.891L445.934 227.184C445.87 227.757 445.615 228.286 445.216 228.67C444.817 229.053 444.303 229.266 443.769 229.267C440.379 229.318 437.101 230.591 434.455 232.886Z" fill="#FE5E00"/>
<path d="M494.627 452.148V194.047C494.627 192.277 495.277 190.579 496.433 189.327C497.589 188.076 499.158 187.372 500.793 187.372H504.447C506.083 187.372 507.651 188.076 508.807 189.327C509.964 190.579 510.614 192.277 510.614 194.047V452.148C510.607 455.816 494.627 455.816 494.627 452.148Z" fill="#535461"/>
<path d="M547.451 239.452H457.227C449.277 239.452 442.831 246.429 442.831 255.036V330.865C442.831 339.472 449.277 346.45 457.227 346.45H547.451C555.402 346.45 561.848 339.472 561.848 330.865V255.036C561.848 246.429 555.402 239.452 547.451 239.452Z" fill="url(#paint0_linear_648_254)"/>
<path d="M546.173 241.026H458.682C450.731 241.026 444.285 248.003 444.285 256.61V329.295C444.285 337.902 450.731 344.879 458.682 344.879H546.173C554.124 344.879 560.569 337.902 560.569 329.295V256.61C560.569 248.003 554.124 241.026 546.173 241.026Z" fill="white"/>
<path d="M507.783 284.111C508.192 284.112 508.584 284.288 508.872 284.601C509.161 284.914 509.324 285.338 509.325 285.78V300.125C509.324 300.567 509.161 300.991 508.872 301.304C508.584 301.616 508.192 301.792 507.783 301.793H495.795C495.387 301.792 494.995 301.616 494.706 301.304C494.417 300.991 494.254 300.567 494.254 300.125V285.78C494.254 285.338 494.417 284.914 494.706 284.601C494.995 284.288 495.387 284.112 495.795 284.111H507.787M507.787 283.409H495.795C495.214 283.409 494.657 283.659 494.246 284.103C493.835 284.548 493.604 285.151 493.604 285.78V300.125C493.604 300.754 493.835 301.357 494.246 301.801C494.657 302.246 495.214 302.496 495.795 302.496H507.787C508.368 302.496 508.925 302.246 509.336 301.801C509.746 301.357 509.977 300.754 509.977 300.125V285.78C509.977 285.151 509.746 284.548 509.336 284.103C508.925 283.659 508.368 283.409 507.787 283.409Z" fill="#E0E0E0"/>
<path d="M501.789 288.703V292.729" stroke="#6C63FF" stroke-width="2" stroke-miterlimit="10" stroke-linecap="round"/>
<path d="M503.347 290.467C504 290.844 504.518 291.447 504.816 292.18C505.115 292.914 505.178 293.734 504.995 294.51C504.812 295.287 504.394 295.974 503.807 296.463C503.22 296.951 502.499 297.213 501.759 297.205C501.019 297.198 500.303 296.921 499.725 296.421C499.147 295.92 498.741 295.224 498.571 294.444C498.402 293.664 498.479 292.845 498.791 292.118C499.103 291.391 499.631 290.799 500.29 290.435" stroke="#6C63FF" stroke-width="2" stroke-miterlimit="10" stroke-linecap="round"/>
</g>
<defs>
<filter id="filter0_d_648_254" x="242.045" y="-3.05176e-05" width="247.307" height="197.376" filterUnits="userSpaceOnUse" color-interpolation-filters="sRGB">
<feFlood flood-opacity="0" result="BackgroundImageFix"/>
<feColorMatrix in="SourceAlpha" type="matrix" values="0 0 0 0 0 0 0 0 0 0 0 0 0 0 0 0 0 0 127 0" result="hardAlpha"/>
<feOffset dy="4"/>
<feGaussianBlur stdDeviation="3"/>
<feComposite in2="hardAlpha" operator="out"/>
<feColorMatrix type="matrix" values="0 0 0 0 0 0 0 0 0 0 0 0 0 0 0 0 0 0 0.45 0"/>
<feBlend mode="normal" in2="BackgroundImageFix" result="effect1_dropShadow_648_254"/>
<feBlend mode="normal" in="SourceGraphic" in2="effect1_dropShadow_648_254" result="shape"/>
</filter>
<linearGradient id="paint0_linear_648_254" x1="502.338" y1="346.453" x2="502.338" y2="239.452" gradientUnits="userSpaceOnUse">
<stop stop-color="#808080" stop-opacity="0.25"/>
<stop offset="0.54" stop-color="#808080" stop-opacity="0.12"/>
<stop offset="1" stop-color="#808080" stop-opacity="0.1"/>
</linearGradient>
<clipPath id="clip0_648_254">
<rect width="235.307" height="185.376" fill="white" transform="translate(248.045 1.99997)"/>
</clipPath>
<clipPath id="clip1_648_254">
<rect width="496.542" height="344.543" fill="white" transform="translate(0 110.318)"/>
</clipPath>
<clipPath id="clip2_648_254">
<rect width="196.425" height="267.523" fill="white" transform="translate(403.575 187.376)"/>
</clipPath>
</defs>
</svg>
