<svg width="1330" height="585" viewBox="0 0 1330 585" fill="none" xmlns="http://www.w3.org/2000/svg">
<path d="M-124.719 720.308C-33.8854 726.675 65.5143 756.938 167.282 809.211C318.426 887.756 372.955 965.132 481.511 992.931C586.978 1019.9 674.48 982.411 714.089 911.164C768.112 813.918 698.497 715.76 686.201 484.998C679.029 349.367 665.432 94.8373 812.798 7.24264C887.255 -37.0013 996.638 -34.9786 1098.29 -33.1313C1222.88 -30.864 1258.3 -7.73076 1311.2 -25.1792C1374.04 -45.8758 1441.1 -117.038 1431.99 -356.733" stroke="#FE5E00" stroke-width="7" stroke-miterlimit="10"/>
<path d="M-112.751 739.01C-31.7323 743.666 56.386 767.485 147.201 809.276C155.956 813.364 164.856 817.64 173.926 822.083C322.697 896.334 375.455 969.702 481.987 996.295C528.512 1008 571.558 1008.72 608.62 998.414C635.141 990.997 658.535 978.436 678.197 961.054C692.89 948.041 705.091 932.031 714.572 913.329C725.447 892.894 731.785 868.262 733.328 840.428C736.07 789.084 722.527 733.024 710.805 658.631C702.002 602.628 697.682 548.539 697.895 496.973C697.824 469.425 697.243 436.6 698.68 401.404C702.407 307.08 715.711 197.488 772.703 119.371C791.88 92.6551 815.312 70.6428 842.551 53.7538C846.713 51.1519 850.992 48.758 855.291 46.4987C897.798 24.0505 946.673 13.5676 1000.61 8.07424C1040.79 3.74728 1082.66 4.68934 1123.35 4.52821C1140.51 4.61791 1155.95 4.83401 1170.11 5.29483C1255.71 8.21673 1287.12 20.9242 1330.7 3.5472C1363.8 -9.66195 1397.94 -38.0601 1421.54 -99.7666C1440.93 -150.323 1453.25 -224.022 1452.68 -329.813" stroke="#FE5E00" stroke-width="7" stroke-miterlimit="10"/>
<path d="M-100.605 757.724C-21.3122 761.178 65.0517 783.273 154.28 822.933C162.863 826.78 171.567 830.784 180.391 834.944C326.96 904.845 377.925 974.069 482.489 999.639C529.37 1011.69 572.816 1012.76 610.324 1002.77C637.006 995.318 660.44 982.527 679.985 964.752C694.456 951.403 706.219 934.847 715.018 915.448C725.117 894.173 730.987 869.111 732.425 841.121C735.509 788.024 724.019 732.549 714.646 661.87C707.71 608.088 705.871 556.667 709.156 508.385C710.599 482.807 711.259 452.311 714.637 420.024C723.621 333.969 741.078 237.523 800.823 164.526C821.275 139.06 845.158 117.508 872.169 100.144C876.384 97.5017 880.619 94.9937 884.908 92.6671C927.655 69.2136 973.753 56.9853 1026.52 48.4354C1066.29 42.0367 1107.64 42.7871 1148.32 42.1814C1165.19 41.8959 1180.49 41.7022 1194.61 41.6716C1278.2 41.6572 1308.65 52.1217 1350.08 32.2203C1381.64 17.0618 1414.14 -12.9147 1437.73 -75.1329C1456.95 -126.012 1470.41 -199.388 1473.44 -302.8" stroke="#FE5E00" stroke-width="7" stroke-miterlimit="10"/>
<path d="M-88.9407 776.362C-11.22 778.585 73.5705 799.002 161.393 836.639C169.824 840.305 178.353 844.045 186.964 847.945C331.347 913.41 380.46 978.686 482.937 1003.02C531.45 1014.53 572.995 1017.74 611.985 1007.24C638.855 999.748 662.349 986.714 681.782 968.519C696.028 954.816 707.342 937.696 715.438 917.587C724.774 895.474 730.197 869.965 731.55 841.795C734.92 786.985 725.53 732.209 718.567 665.272C713.504 613.676 714.221 564.979 720.705 520.174C723.795 496.463 725.59 468.377 730.882 439.021C745.001 360.582 766.624 277.793 829.051 209.823C850.793 185.625 875.166 164.524 901.985 146.683C906.19 143.973 910.521 141.316 914.668 139.024C956.325 115.641 1002.49 98.9207 1052.53 89.093C1091.86 80.5758 1132.85 81.3016 1173.45 79.9354C1190.11 79.3685 1205.2 78.7385 1219.3 78.1961C1300.83 75.2189 1330.27 83.3263 1369.62 61.0616C1399.75 44.0271 1430.59 12.2706 1454.08 -50.3983C1473.38 -101.338 1487.53 -174.8 1493.98 -276.067" stroke="#FE5E00" stroke-width="7" stroke-miterlimit="10"/>
<path d="M-77.0349 795.037C-0.939716 796.101 82.1726 814.808 168.472 850.296C176.758 853.774 185.098 857.212 193.502 860.899C335.71 922.216 382.832 982.98 483.449 1006.44C532.771 1017.84 573.962 1022.29 613.699 1011.67C640.75 1004.17 664.276 990.883 683.543 972.238C697.649 958.206 708.562 940.504 715.964 919.644C724.559 896.797 729.592 870.949 730.943 842.708C734.565 786.138 727.515 732.1 722.533 668.565C719.057 623.791 722.02 580.036 732.298 531.853C736.936 509.937 739.962 484.112 747.125 457.794C766.502 386.579 792.242 317.934 857.217 255.092C880.181 232.15 905.025 211.487 931.649 193.187C935.872 190.39 940.113 187.727 944.268 185.28C985.167 160.77 1030.11 142.098 1078.62 129.466C1117.56 118.79 1158.07 119.66 1198.43 117.433C1214.74 116.687 1229.91 115.619 1243.9 114.491C1323.52 108.806 1351.77 114.322 1389.07 89.6061C1417.72 70.6488 1446.91 37.2466 1470.38 -25.8464C1489.43 -77.1149 1504.64 -150.281 1514.56 -249.288" stroke="#FE5E00" stroke-width="7" stroke-miterlimit="10"/>
<path d="M-65.1028 813.692C9.3754 813.631 90.7985 830.636 175.55 863.953C183.656 867.197 191.78 870.354 199.967 873.759C339.756 930.445 385.358 987.529 483.836 1009.79C534.003 1021.15 574.84 1026.84 615.298 1016.11C642.541 1008.57 666.118 995.029 685.242 975.93C699.129 961.605 709.58 943.391 716.252 921.885C724.086 898.25 728.679 871.972 729.945 843.55C733.917 785.293 729.34 732.114 726.287 672.021C724.116 627.736 730.177 586.971 743.643 543.649C749.882 523.487 754.212 500.017 762.985 476.563C787.774 412.006 817.556 358.01 885.14 300.1C908.62 279.966 934.447 257.506 961.133 239.458C965.373 236.572 969.525 233.903 973.687 231.301C1013.77 205.706 1057.41 185.13 1104.26 169.742C1142.75 156.946 1182.96 157.819 1223.33 154.993C1239.56 153.863 1254.28 152.32 1268.33 150.774C1346.21 142.616 1374.15 146.51 1408.54 118.508C1435.13 96.8771 1463.25 62.5125 1486.55 -1.12501C1505.3 -52.8359 1521.69 -125.633 1535.11 -222.334" stroke="#FE5E00" stroke-width="7" stroke-miterlimit="10"/>
<path d="M-53.2334 832.322C19.6643 831.164 99.4174 846.478 182.628 877.611C190.554 880.621 198.524 883.523 206.469 886.667C344.117 939.03 387.801 991.917 484.285 1013.18C535.146 1024.44 575.718 1031.38 616.985 1020.56C644.341 1012.96 667.919 999.196 686.897 979.732C700.589 965.047 710.61 946.269 716.592 924.085C723.593 899.642 727.751 872.959 729.009 844.419C733.232 784.403 731.092 731.813 729.978 675.451C728.993 631.448 738.397 593.933 754.961 555.466C762.854 537.016 774.49 520.912 779.144 495.776C825.266 454.585 837.677 391.11 913.291 345.68C940.031 329.679 964.481 304.547 990.737 286.159C995.029 283.233 999.189 280.409 1003.26 277.801C1046.8 249.782 1081.18 229.707 1130.01 210.226C1168.02 195.265 1207.9 196.248 1248.13 192.635C1264 191.325 1278.68 189.29 1292.72 187.233C1368.43 176.193 1394.33 176.283 1427.62 146.961C1453.34 124.138 1479.26 87.357 1502.54 23.3627C1521.35 -28.389 1538.46 -101.225 1555.44 -195.66" stroke="#FE5E00" stroke-width="7" stroke-miterlimit="10"/>
<path d="M-41.3281 850.998C29.9821 848.746 108.038 862.338 189.67 891.222C197.478 894.024 205.232 896.644 212.934 899.527C348.502 947.372 390.315 996.177 484.84 1016.48C536.617 1027.57 576.729 1035.83 618.752 1024.94C646.37 1017.32 670.035 1003.23 688.86 983.221C704.362 967.204 711.579 946.886 717.215 925.994C723.413 900.757 727.158 873.649 728.408 844.955C732.918 783.226 733.501 731.379 734.12 678.534C734.548 635.161 747.22 600.58 766.562 566.991C776.224 550.24 789.93 537.542 795.466 514.488C849.482 483.568 869.133 438.849 941.57 390.712C967.578 373.484 994.617 351.063 1020.68 332.595C1024.82 329.414 1029.11 326.643 1033.08 323.961C1076.81 294.756 1108.3 272.795 1156.37 250.84C1193.91 233.781 1233.44 234.807 1273.56 230.453C1289.22 228.863 1303.7 226.391 1317.72 223.822C1391.61 210.148 1416.36 207.693 1447.47 175.8C1471.74 151.1 1496.02 112.674 1519.23 48.2087C1538.06 -3.56341 1556 -76.4317 1576.5 -168.582" stroke="#FE5E00" stroke-width="7" stroke-miterlimit="10"/>
<path d="M-29.4321 869.606C40.3085 866.328 116.64 878.19 196.64 904.739C204.304 907.354 211.904 909.719 219.487 912.172C352.735 955.681 392.721 1000.3 485.171 1019.66C537.758 1030.64 577.552 1040.19 620.286 1029.13C648.078 1021.53 671.783 1007.24 690.46 986.84C705.985 970.358 712.386 949.474 717.474 928.033C723.762 901.566 725.277 875.038 727.462 845.757C732.322 782.341 745.47 736.354 737.917 681.882C748.187 644.671 743.998 591.941 778.066 578.665C795.796 571.752 805.255 554.187 811.656 533.303C873.556 512.586 895.01 479.164 969.779 435.874C997.047 420.065 1024.75 397.578 1050.39 378.992C1054.61 375.75 1058.64 372.65 1062.79 370.136C1106.65 339.785 1135.17 315.777 1182.39 291.275C1219.48 271.943 1258.62 273.119 1298.61 268.046C1314.05 266.174 1328.38 263.293 1342.33 260.185C1414.31 244.025 1437.81 238.575 1466.99 204.439C1489.78 177.749 1512.43 137.657 1535.53 72.7615C1554.19 20.6672 1573.03 -51.8504 1597.17 -141.796" stroke="#FE5E00" stroke-width="7" stroke-miterlimit="10"/>
<path d="M-17.5625 888.235C50.6855 883.975 125.366 894.182 203.79 918.49C211.274 920.87 218.514 922.766 226.051 925.105C357.273 964.055 395.139 1004.7 485.683 1023.07C539.069 1033.89 578.519 1044.75 622.01 1033.63C649.965 1025.96 673.709 1011.42 692.258 990.606C707.805 973.659 713.283 952.067 717.956 930.198C723.566 903.507 724.346 876.35 726.596 846.496C731.672 781.275 748.466 736.737 741.811 685.081C754.48 649.234 753.454 597.654 789.587 590.25C809.337 586.186 820.642 570.858 827.82 552.138C897.604 541.624 920.959 519.571 997.962 481.055C1026.45 466.619 1054.66 444.344 1080.1 425.389L1092.23 416.07C1136.23 384.485 1161.95 358.529 1208.18 331.428C1244.82 309.91 1283.63 311.264 1323.48 305.403C1338.71 303.25 1352.83 299.932 1366.72 296.266C1436.87 277.714 1459.13 269.336 1486.3 232.863C1507.58 204.204 1528.62 162.446 1551.65 97.1462C1570.17 44.7971 1590.11 -27.6002 1617.64 -115.225" stroke="#FE5E00" stroke-width="7" stroke-miterlimit="10"/>
<path d="M-5.72925 906.817C61.0109 901.668 133.96 910.202 210.69 932.136C217.876 934.073 225.116 935.97 232.328 937.886C361.248 972.414 397.313 1008.85 486.034 1026.38C540.184 1036.99 579.458 1049.1 623.563 1037.96C651.723 1030.31 675.515 1015.53 693.894 994.273C709.49 976.84 714.234 954.843 718.251 932.285C722.966 905.087 723.288 877.611 725.641 847.231C731.03 780.276 751.372 737.115 745.492 688.444C760.551 653.894 780.836 630.098 800.859 601.953C819.769 595.477 835.745 587.6 843.841 571.008C921.627 570.906 946.723 560.123 1025.9 526.199C1055.84 513.416 1084.95 491.559 1109.6 471.794C1113.9 468.491 1118.01 465.33 1121.81 462.414C1164.67 427.907 1188.67 401.701 1234.1 372.012C1270.31 348.287 1308.73 349.792 1348.5 343.171C1363.47 340.69 1377.51 336.989 1391.15 332.772C1459.46 311.829 1480.3 300.51 1505.55 261.639C1525.37 231.036 1544.77 187.633 1567.76 121.842C1586.16 69.2848 1606.96 -2.87595 1638.06 -88.3233" stroke="#FE5E00" stroke-width="7" stroke-miterlimit="10"/>
<path d="M6.16699 925.426C71.4665 919.309 142.76 926.118 217.865 945.645C225.025 947.603 232.038 949.15 239.035 950.786C365.776 980.721 399.917 1013.12 486.526 1029.66C541.549 1040.19 580.31 1053.67 625.304 1042.36C653.727 1034.67 677.608 1019.58 695.831 997.782C711.556 979.803 715.547 957.265 718.804 934.322C722.865 906.657 722.542 878.781 724.764 847.681C730.414 779.034 754.357 737.208 749.304 691.482C766.762 658.296 790.122 637.732 812.227 613.284C833.196 609.104 850.942 603.969 859.895 589.479C945.43 599.461 972.617 600.35 1053.95 571.038C1085.21 559.768 1114.86 537.88 1139.21 517.896C1143.56 514.551 1147.67 511.391 1151.49 508.455C1194.42 472.708 1215.44 444.387 1260.08 412.245C1295.81 386.355 1333.93 388.017 1373.56 380.609C1388.35 377.893 1401.99 373.676 1415.92 369.012C1482.47 345.771 1502.07 331.302 1525.2 290.176C1543.51 257.603 1561.32 212.581 1584.23 146.339C1602.5 93.5742 1624.37 21.4868 1658.9 -61.5932" stroke="#FE5E00" stroke-width="7" stroke-miterlimit="10"/>
<path d="M18.0002 944.008C81.8781 937.019 151.491 942.149 224.907 959.256C232.093 961.193 238.71 962.225 245.526 963.625C370.08 988.902 402.296 1017.26 486.966 1032.98C542.752 1043.29 581.169 1058.08 626.946 1046.69C655.492 1039 679.372 1023.71 697.424 1001.56C712.896 983.249 716.426 959.946 719.099 936.407C722.266 908.46 721.405 880.103 723.989 848.65C729.917 778.222 757.443 737.82 753.21 694.971C773.057 663.082 799.169 645.55 823.831 625.253C846.798 623.342 866.377 620.977 876.159 608.61C969.615 628.842 998.722 641.235 1082.23 616.515C1114.86 606.805 1144.49 584.184 1169.04 564.723C1173.44 561.338 1177.58 558.157 1181.4 555.221C1224.44 518.193 1244.12 489.936 1286.35 453.23C1320.4 423.627 1359.37 426.946 1398.97 418.892C1413.62 415.763 1427.61 411.482 1440.9 406.066C1505.71 380.574 1523.93 362.989 1545.06 319.526C1561.88 284.963 1578.08 238.342 1600.89 171.65C1619.19 118.575 1641.85 46.6976 1679.9 -34.0966" stroke="#FE5E00" stroke-width="7" stroke-miterlimit="10"/>
<path d="M22.1199 952.554C84.6637 944.796 152.645 948.313 224.38 963.018C231.205 964.486 237.849 965.498 244.475 966.597C366.814 987.234 397.159 1011.51 479.8 1026.4C536.422 1036.59 574.494 1052.69 620.991 1041.2C649.737 1033.5 673.674 1017.96 691.579 995.38C707.171 976.459 709.904 952.724 711.993 928.59C714.041 900.01 712.571 871.3 715.373 839.307C721.696 767.307 752.679 728.053 749.31 688.195C771.52 657.623 800.519 643.244 827.523 626.817C852.523 627.223 873.872 627.6 884.546 617.382C985.886 647.817 1017.23 672.07 1102.4 651.373C1136.42 643.203 1166.5 620.457 1190.74 600.708L1202.84 590.743C1247.39 554.264 1261.34 520.416 1304.15 483.039C1338.88 452.616 1376.39 454.747 1415.74 445.765C1430.3 442.282 1444.16 437.582 1457.26 431.689C1520.21 404.048 1537.11 383.151 1556.23 337.419C1571.57 300.866 1586.19 252.626 1608.91 185.483C1627.06 132.221 1650.71 60.4779 1692.29 -18.0306" stroke="#FE5E00" stroke-width="7" stroke-miterlimit="10"/>
<path d="M22.7993 956.731C83.8712 948.057 150.07 949.782 219.953 961.87C226.661 963.13 233.088 963.86 239.498 964.677C359.827 980.668 388.286 1001.17 468.922 1014.99C526.335 1024.95 564.072 1042.42 611.352 1030.85C640.248 1023.06 664.181 1007.19 681.869 984.118C697.421 964.706 699.635 940.624 700.889 915.788C702.492 887.178 700.438 857.872 703.173 825.408C709.702 751.535 744.341 713.798 741.826 676.864C766.425 647.589 793.617 628.332 827.692 623.852C852.126 620.665 878.052 629.908 889.116 621.405C998.313 662.064 1031.86 698.196 1119.1 681.951C1154.54 675.454 1185.09 652.496 1208.98 632.568C1213.49 629.102 1217.4 625.505 1221.05 622.402C1265.71 584.642 1276.71 548.814 1318.65 508.823C1352.86 476.188 1390.11 478.522 1429.21 468.613C1443.72 464.846 1457.43 459.734 1470.28 453.307C1531.55 423.528 1546.99 399.355 1564.14 351.333C1577.93 312.764 1590.97 262.905 1613.63 195.358C1631.63 141.908 1656.28 70.2997 1701.17 -6.20431" stroke="#FE5E00" stroke-width="7" stroke-miterlimit="10"/>
<path d="M23.5388 960.714C83.2696 951.257 147.768 951.281 215.829 960.787C222.383 961.792 228.621 962.221 234.824 962.824C352.758 973.941 379.194 990.327 458.044 1003.58C516.194 1013.35 553.623 1032.18 601.783 1020.38C631 1012.76 655.093 996.781 672.698 973.337C688.262 953.393 689.642 928.61 690.412 903.474C691.291 874.526 688.573 844.686 691.543 811.594C698.332 736.028 736.582 699.693 734.912 665.616C761.739 637.538 792.67 622.047 828.353 621.032C855.159 620.273 882.291 631.798 894.722 625.899C1011.81 676.829 1047.54 724.794 1136.73 712.792C1173.61 707.949 1204.49 684.814 1228.28 664.813L1240.28 654.397C1285.07 615.424 1293.1 577.548 1334.24 535.038C1367.95 500.102 1405.09 502.963 1443.97 492.105C1458.46 488.094 1472.07 482.617 1484.72 475.711C1544.31 443.862 1558.27 416.345 1573.46 366.033C1585.73 325.494 1597.16 274.036 1619.75 206.019C1642.65 132.69 1673.29 65.997 1711.33 6.73178" stroke="#FE5E00" stroke-width="7" stroke-miterlimit="10"/>
<path d="M22.7207 962.834C81.2051 952.7 144.055 951.09 210.292 958.03C216.692 958.781 222.75 958.974 228.737 959.296C344.463 965.62 369.102 978.239 445.904 990.531C504.871 1000.04 541.939 1020.27 590.749 1008.49C620.137 1000.81 644.219 984.485 661.557 960.489C677.082 940.053 677.797 914.736 677.931 889.046C678.058 859.779 674.713 829.452 677.731 795.875C684.835 718.575 726.589 683.725 725.817 652.464C755.178 625.871 789.524 613.946 826.849 616.22C856.074 618.004 884.689 632.118 897.914 628.295C1022.89 689.428 1060.79 749.294 1151.91 741.555C1190.23 738.366 1221.48 714.945 1244.88 694.65C1249.25 690.841 1253.24 687.183 1256.81 683.986C1301.8 643.671 1306.82 603.924 1347.08 558.887C1380.27 521.739 1417.01 524.616 1455.89 513.158C1470.28 508.796 1483.72 502.859 1496.09 495.394C1554.07 461.502 1566.46 430.568 1579.71 378.013C1590.43 335.457 1600.32 282.427 1622.78 213.912C1645.97 140.055 1678.3 74.0771 1719.26 17.0495" stroke="#FE5E00" stroke-width="7" stroke-miterlimit="10"/>
<path d="M19.1272 961.344C76.3586 950.507 137.53 947.219 201.871 951.522C208.091 952.038 213.995 951.977 219.802 952.064C333.239 953.432 355.971 961.923 430.881 973.729C490.638 983.007 527.407 1004.66 576.928 992.707C606.522 985.039 630.655 968.472 647.819 944.042C663.294 923.048 663.382 897.243 662.852 871.019C662.363 841.554 658.281 810.599 661.402 776.495C668.793 697.483 714.138 663.902 714.204 635.653C745.928 610.376 783.818 602.293 822.863 607.795C854.499 612.276 884.533 628.732 898.615 627.011C1031.48 698.415 1071.51 770.154 1164.57 766.591C1204.31 765.143 1236.03 741.51 1259.1 720.948C1263.46 717.072 1267.44 713.347 1270.98 710.103C1316.03 668.616 1318.06 626.774 1357.49 579.237C1390.15 539.809 1426.65 542.937 1465.34 530.733C1479.67 526.028 1492.97 519.671 1505.13 511.719C1561.53 475.831 1572.29 441.452 1583.61 386.654C1592.89 342.223 1601.11 287.413 1623.52 218.494C1646.79 144.001 1680.64 78.6428 1724.33 23.8173" stroke="#FE5E00" stroke-width="7" stroke-miterlimit="10"/>
<path d="M15.5603 959.833C71.6005 948.381 131.101 943.44 193.486 945.06C199.553 945.321 205.204 944.931 210.831 944.784C322.114 941.318 342.639 946.059 415.858 956.927C476.343 965.944 512.839 988.995 563.116 976.987C592.947 969.357 617.133 952.523 634.082 927.595C649.471 905.995 649.003 879.797 647.799 852.971C646.478 823.027 641.85 791.745 645.073 757.116C652.886 676.511 701.688 644.078 702.555 618.793C732.317 596.899 772.619 590.157 818.815 599.342C852.872 606.589 884.342 625.298 899.289 625.746C1040.04 707.354 1082.2 791.033 1177.23 791.627C1218.43 791.967 1250.47 767.935 1273.29 747.267C1277.7 743.282 1281.63 739.51 1285.13 736.152C1330.17 693.331 1329.6 649.756 1368.03 599.485C1400.15 557.865 1436.44 561.156 1474.99 548.165C1488.37 543.62 1500 535.578 1514.27 527.895C1573.45 496.063 1578.28 452.214 1587.63 395.126C1595.25 348.538 1602.03 292.296 1624.35 222.927C1647.77 147.76 1683.13 82.9504 1729.47 30.2341" stroke="#FE5E00" stroke-width="7" stroke-miterlimit="10"/>
<path d="M11.9673 958.342C66.855 946.284 124.689 939.672 185.066 938.551C190.943 938.51 196.45 937.933 201.887 937.484C310.468 928.635 329.653 929.93 400.835 940.125C462.137 948.887 498.166 973.417 549.332 961.247C579.427 953.613 603.7 936.485 620.477 911.045C635.754 888.86 634.694 862.222 632.853 834.841C630.729 804.62 625.526 772.81 628.851 737.655C636.834 655.129 689.272 624.078 691.049 601.899C723.263 581.576 766.403 577.836 815.01 591.151C851.372 601.177 884.367 622.145 900.144 624.716C1048.78 716.527 1093.04 812.168 1190.08 816.964C1232.72 819.025 1265.11 794.66 1287.71 773.778C1292.11 769.727 1296.03 765.82 1299.5 762.482C1344.62 718.334 1340.95 672.591 1378.72 619.987C1410.34 576.068 1446.34 579.805 1484.81 565.831C1498.54 559.795 1511.52 552.611 1523.68 544.311C1581 509.885 1584.48 463.19 1591.92 403.839C1597.96 355.254 1603.23 297.42 1625.34 227.682C1648.93 151.944 1685.85 87.8213 1734.87 37.4236" stroke="#FE5E00" stroke-width="7" stroke-miterlimit="10"/>
<path d="M8.37402 956.852C62.164 944.222 118.336 935.917 176.636 931.975C182.332 931.7 187.695 930.935 192.88 930.158C299.245 916.448 316.488 913.789 386.062 923.429C447.832 931.757 483.598 957.757 535.485 945.482C565.782 937.913 590.085 920.561 606.633 894.68C621.825 871.889 620.2 844.79 617.669 816.896C614.935 786.322 608.989 754.039 612.443 718.337C620.686 634.119 676.887 604.504 679.186 584.982C713.856 566.055 759.833 565.169 810.809 582.445C849.494 595.385 883.969 618.498 900.602 623.171C1057.13 725.253 1103.71 833.136 1202.55 841.766C1246.66 845.615 1279.38 820.918 1301.7 799.883C1306.12 795.744 1310.02 791.769 1313.42 788.338C1358.64 742.842 1352.02 695.187 1389 640.062C1420.05 593.816 1455.87 597.919 1494.11 583.152C1507.83 576.878 1520.67 569.28 1532.54 560.402C1587.99 523.382 1590.14 473.841 1595.6 412.2C1600.16 361.625 1603.87 302.151 1626.03 232.149C1649.79 155.771 1688.25 92.2681 1739.91 44.1448" stroke="#FE5E00" stroke-width="7" stroke-miterlimit="10"/>
<path d="M4.8335 955.321C65.9612 940.792 122.708 930.228 168.277 925.493C173.847 924.943 178.958 923.85 184.008 922.952C287.894 903.985 303.421 897.721 370.67 906.313C433.445 914.465 469.019 941.807 521.582 929.534C552.096 921.99 576.442 904.376 592.778 878.025C607.847 854.582 605.73 827.116 602.498 798.64C599.014 767.748 592.44 734.978 595.996 698.75C604.553 612.799 664.355 584.519 667.6 568.149C704.744 550.689 753.482 552.656 806.669 573.764C847.652 589.639 883.395 612.15 901.185 621.679C1066.48 710.458 1114.34 854.057 1215.09 866.593C1260.67 872.299 1293.76 847.161 1315.8 825.973C1320.23 821.746 1324.07 817.678 1327.46 814.179C1372.68 767.417 1363.14 717.829 1399.38 660.21C1429.87 611.638 1465.46 616.058 1503.52 600.39C1517.62 594.446 1530.35 586.433 1541.55 576.457C1591.87 532.711 1595.9 484.409 1599.49 420.552C1602.43 367.934 1604.57 306.908 1626.64 236.234C1650.61 159.21 1690.63 96.3021 1744.86 50.415" stroke="#FE5E00" stroke-width="7" stroke-miterlimit="10"/>
<path d="M1.21362 953.851C62.3768 938.325 117.308 925.948 159.83 919.005C165.21 918.152 170.14 916.825 175.01 915.693C276.471 891.428 290.266 881.647 355.729 889.672C419.285 897.523 454.605 926.402 507.889 914.023C538.646 906.501 563.054 888.61 579.184 861.765C594.07 837.643 591.432 809.83 587.501 780.773C583.319 749.523 575.985 716.367 579.749 679.531C588.557 591.821 651.836 565.046 656.059 551.431C699.723 532.794 754.184 544.351 802.765 565.5C846.064 584.443 883.559 609.562 901.941 620.575C1075.84 724.672 1125.18 875.347 1227.84 891.857C1274.85 899.371 1308.32 873.793 1330.07 852.452C1334.49 848.091 1338.38 843.982 1341.7 840.456C1386.96 792.32 1374.46 740.685 1409.94 680.66C1439.88 629.828 1475.29 634.614 1513.13 618.065C1527.18 611.792 1539.76 603.348 1550.69 592.856C1599.63 547.26 1601.89 495.394 1603.54 429.226C1604.91 374.612 1605.52 311.994 1627.56 240.828C1644.65 185.693 1676.96 115.278 1750.07 57.1481" stroke="#FE5E00" stroke-width="7" stroke-miterlimit="10"/>
<path d="M-2.37988 952.36C58.9005 935.998 111.836 921.574 151.445 912.543C156.599 911.342 161.35 909.78 166.219 908.648C264.843 878.88 277.1 865.505 340.705 872.87C404.31 880.235 440.037 910.742 494.068 898.236C525.078 890.794 549.548 872.652 565.446 845.318C580.112 820.47 577.08 792.363 572.485 762.772C567.614 731.23 559.696 697.479 563.456 660.199C572.758 570.989 639.432 545.336 644.483 534.665C690.535 517.325 748.051 532.801 798.78 557.075C844.116 578.778 883.436 606.822 902.471 619.123C1084.47 738.48 1135.77 896.376 1240.35 916.705C1288.84 926.142 1322.63 900.097 1344.15 878.562C1348.55 874.133 1352.4 869.911 1355.79 866.257C1400.96 816.626 1385.74 763.271 1420.37 700.7C1449.77 647.588 1485.03 652.719 1522.66 635.289C1536.65 628.701 1549.09 619.842 1559.78 608.85C1607.3 561.358 1607.74 505.968 1607.5 437.517C1607.3 380.906 1606.4 316.696 1628.39 245.038C1645.39 189.676 1678.6 119.389 1755.31 63.6383" stroke="#FE5E00" stroke-width="7" stroke-miterlimit="10"/>
<path d="M-5.94653 950.849C55.3523 933.578 106.365 917.2 143.097 906.128C148.061 904.625 152.667 902.876 157.141 901.228C253.233 866.244 263.936 849.364 325.718 856.115C390.692 863.175 425.443 895.102 480.257 882.517C511.536 875.154 536.068 856.736 551.709 828.871C566.118 803.25 562.691 774.85 557.469 744.772C551.838 712.844 543.301 678.673 547.154 640.799C556.537 549.663 622.127 518.426 632.87 517.853C688.233 514.768 741.819 521.179 794.795 548.649C842.25 573.275 883.41 603.933 903.352 618.073C1092.95 752.479 1146.69 917.894 1253.23 942.023C1303.16 953.335 1337.25 926.756 1358.52 905.115C1362.97 900.579 1366.78 896.309 1370.06 892.669C1415.41 841.851 1397.1 786.396 1430.93 721.305C1459.74 665.887 1494.85 671.429 1532.29 653.098C1546.23 646.187 1558.53 636.912 1568.97 625.43C1615.12 576.088 1613.72 517.108 1611.56 446.413C1609.94 387.974 1607.34 321.936 1629.27 249.808C1646.15 194.237 1680.39 124.132 1760.57 70.6406" stroke="#FE5E00" stroke-width="7" stroke-miterlimit="10"/>
<path d="M-9.53955 949.358C51.9846 931.392 100.759 912.706 134.604 899.525C139.343 897.674 143.805 895.737 148.125 893.834C241.55 853.514 250.798 833.202 310.659 839.266C376.619 846.016 410.76 879.456 466.328 866.59C497.846 859.258 522.433 840.566 537.854 812.216C551.917 785.816 548.195 757.196 542.354 726.697C535.953 694.317 526.834 659.773 530.825 621.42C540.522 528.55 613.65 504.65 621.222 500.994C667.471 478.803 735.526 509.529 790.668 540.258C828.715 562.019 866.664 587.689 903.884 616.844C1100.81 765.989 1157.29 939.213 1265.89 967.058C1317.23 980.267 1351.77 953.274 1372.74 931.413C1377.18 926.809 1380.97 922.404 1384.13 918.779C1429.36 866.487 1408.19 809.126 1441.36 741.634C1469.52 683.884 1504.65 689.938 1541.8 670.632C1555.69 663.395 1567.83 653.688 1578.01 641.687C1622.8 590.476 1619.39 527.825 1615.47 454.967C1612.04 394.27 1608.14 326.921 1630.08 254.328C1646.87 198.529 1681.99 128.573 1765.72 77.3468" stroke="#FE5E00" stroke-width="7" stroke-miterlimit="10"/>
<path d="M-13.1331 947.868C48.1763 928.798 95.0538 908.138 126.183 893.016C229.175 842.957 235.012 816.837 295.636 822.464C362.018 828.665 396.308 863.782 452.625 851.011C484.41 843.756 509.07 824.804 524.26 795.956C552.2 740.167 506.491 678.167 514.496 602.04C524.445 507.411 602.021 486.06 609.609 484.182C710.508 458.856 858.648 578.576 904.665 615.498C1108.53 779.003 1168.06 960.409 1278.52 992.114C1342.62 1010.51 1380.37 966.055 1398.31 944.808C1443.66 891.302 1419.56 831.941 1451.87 761.903C1488.24 682.925 1537.16 718.735 1587.18 657.91C1666.83 560.668 1583.03 419.399 1630.78 258.863C1647.45 202.856 1683.53 133.054 1770.8 84.1143" stroke="#FE5E00" stroke-width="7" stroke-miterlimit="10"/>
<path d="M-7.19482 952.629C53.2655 934.212 100.129 914.906 131.474 900.066C232.897 852.853 239.994 827.107 300.441 832.945C365.855 839.368 399.757 872.992 455.147 861.158C486.398 854.223 510.959 836.218 526.655 808.737C556.498 756.633 512.421 695.766 521.086 621.817C531.506 530.108 605.647 507.966 613.758 504.791C689.476 474.871 806.782 556.669 867.964 601.406C880.46 610.527 890.739 618.74 898.379 624.506C1095.23 776.313 1153.1 950.12 1259.63 978.357C1323.15 995.112 1360.77 949.716 1379.79 928.01C1397.29 908.21 1408.78 881.898 1413.63 850.525C1419.55 819.79 1422.66 787.862 1441.75 753.567C1447.62 743.086 1453.84 735.028 1459.47 727.862C1493.6 684.404 1530.48 698.508 1569.27 643.108C1584.34 621.758 1594.14 595.077 1598.26 564.202C1609.74 480.784 1574.57 373.528 1600.78 255.36C1602.31 248.416 1604.11 241.417 1606.17 234.362C1622.65 177.386 1658.6 105.665 1746.48 55.0576" stroke="#FE5E00" stroke-width="7" stroke-miterlimit="10"/>
<path d="M-1.25684 957.39C58.2484 939.707 104.879 921.252 136.756 907.047C236.521 862.675 244.869 837.46 305.283 843.473C369.429 849.676 403.531 882.625 457.528 871.339C488.284 864.738 512.788 847.695 529.033 821.606C560.52 773.012 518.53 713.6 527.614 641.568C538.784 553.086 607.015 526.384 617.853 525.44C703.202 517.661 803.529 571.105 862.655 612.125C874.69 620.481 884.592 628.313 891.844 633.631C1081.79 774.036 1137.93 939.771 1240.58 964.721C1303.32 979.912 1340.97 933.519 1361.04 911.308C1378.88 891.614 1391.34 866.009 1397.88 835.628C1405.32 806.263 1410.6 776.617 1431.51 745.401C1437.98 735.65 1444.97 728.488 1450.61 721.323C1484.6 677.966 1516.44 686.993 1551.13 628.402C1564.56 605.401 1573.03 577.648 1576.21 546.163C1585.91 464.11 1549.96 352.758 1576.07 231.385C1577.64 224.362 1579.39 217.197 1581.4 209.983C1597.65 152.059 1633.48 78.4195 1721.97 26.0764" stroke="#FE5E00" stroke-width="7" stroke-miterlimit="10"/>
<path d="M4.6814 962.151C63.1954 945.156 109.747 927.805 142.138 914.325C240.164 872.632 249.925 848.047 310.179 854.182C373.177 860.373 407.215 892.252 460.185 881.605C490.386 875.284 514.737 859.12 531.392 834.34C564.291 789.286 524.522 731.226 534.168 661.298C545.945 575.857 609.406 546.628 621.93 545.956C692.343 543.217 774.618 570.054 857.301 622.73C868.875 630.322 878.426 637.752 885.3 642.689C1068 771.356 1122.86 929.496 1221.56 951.221C1283.66 964.813 1321.19 917.39 1342.38 894.767C1360.51 875.102 1373.91 850.184 1382.14 820.865C1391.15 792.829 1398.67 765.492 1421.25 737.322C1428.45 728.354 1436.15 722.063 1441.79 714.898C1475.69 671.535 1502.46 675.727 1532.95 613.872C1544.69 589.203 1551.83 560.404 1554.16 528.345C1561.83 447.331 1525.59 332.25 1551.29 207.605C1552.82 200.468 1554.56 193.184 1556.53 185.752C1572.6 126.927 1608.33 51.3486 1697.44 -2.66245" stroke="#FE5E00" stroke-width="7" stroke-miterlimit="10"/>
<path d="M10.5835 966.866C68.1784 950.651 114.641 934.339 147.482 921.334C243.769 882.32 254.969 858.344 314.994 864.731C376.852 870.976 410.862 901.609 462.628 891.814C492.408 885.902 516.764 870.748 534.003 847.403C568.635 805.867 530.766 749.18 540.965 681.289C553.059 598.513 618.792 577.237 626.115 566.612C697.62 543.511 796.812 599.543 852.081 633.457C863.158 640.236 872.295 647.239 879.014 651.698C1054.63 768.728 1107.95 918.945 1202.6 937.37C1264.11 949.323 1301.49 900.978 1323.75 877.829C1342.2 858.196 1356.56 833.965 1366.48 805.752C1377.08 779.025 1386.79 754.104 1411.08 728.872C1418.95 720.661 1427.4 715.288 1433.09 708.082C1466.94 664.76 1488.5 663.93 1515.1 598.875C1526.35 571.282 1529.97 541.345 1532.36 509.968C1538.23 430.185 1501.14 310.981 1526.83 183.292C1528.29 176.048 1530.02 168.629 1532 161.035C1547.84 101.195 1583.45 23.6975 1673.17 -31.9815" stroke="#FE5E00" stroke-width="7" stroke-miterlimit="10"/>
<path d="M16.4954 971.647C73.0195 956.181 119.473 940.845 152.663 928.019C247.122 891.679 259.809 868.65 319.69 874.848C380.481 881.243 414.239 910.726 465.005 901.55C494.278 896.019 518.517 881.811 536.173 859.834C571.883 821.349 536.569 766.504 547.329 700.717C560.328 621.424 622.916 599.954 630.245 587.086C698.672 563.441 793.405 613.724 846.78 644.021C857.396 650.036 866.182 656.636 872.63 660.633C1041.06 765.953 1092.97 908.231 1183.61 923.538C1244.54 933.852 1281.75 884.519 1305.1 860.978C1328.89 837.022 1340.14 812.939 1350.82 790.705C1363.02 765.288 1370.35 736.382 1400.86 720.463C1409.97 715.87 1417.81 709.469 1424.2 701.408C1458.02 658.106 1474.5 652.529 1496.97 584.014C1506.39 555.363 1508.6 524.196 1510.38 491.644C1514.56 413.234 1476.74 290.047 1502.16 159.053C1503.61 151.674 1505.31 144.105 1507.25 136.346C1522.9 75.6037 1558.38 -3.81215 1648.71 -61.2264" stroke="#FE5E00" stroke-width="7" stroke-miterlimit="10"/>
<path d="M22.4692 976.456C78.1444 961.642 124.403 947.425 157.883 935.197C250.539 901.287 264.773 879.008 324.567 885.423C384.36 891.838 417.859 920.103 467.573 911.81C510.875 904.566 533.775 881.371 538.782 872.674C565.353 826.143 542.748 784.209 554.097 720.506C567.676 644.274 627.279 622.71 634.571 607.707C699.931 583.585 790.033 627.953 841.666 654.665C851.794 659.936 860.23 666.134 866.416 669.735C1027.66 763.345 1078.13 897.483 1164.91 909.86C1225.31 918.494 1262.27 868.233 1286.73 844.212C1311.19 820.192 1323.33 796.836 1335.37 775.718C1349.15 751.63 1358.59 724.158 1390.93 712.207C1400.79 708.727 1409.11 702.864 1415.57 694.84C1449.34 651.579 1460.76 641.235 1479.09 569.327C1486.72 539.597 1487.4 507.214 1488.56 473.798C1491.34 397.068 1452.51 269.503 1477.65 135.224C1479.06 127.725 1480.73 120.021 1482.67 112.113C1498.13 50.4028 1533.49 -30.9317 1624.4 -90.0609" stroke="#FE5E00" stroke-width="7" stroke-miterlimit="10"/>
<path d="M28.2996 981.076C83.1277 967.137 129.307 954.026 163.066 942.105C253.766 910.593 269.63 889.226 329.264 895.763C387.83 902.227 421.38 929.408 470.023 921.863C512.477 915.271 535.814 894.128 541.035 885.49C567.846 840.863 548.581 801.957 560.546 740.318C574.668 667.099 631.253 645.617 638.47 628.21C700.753 603.543 785.892 641.729 836.134 665.258C844.003 669.32 851.89 673.79 859.764 678.652C1013.77 760.592 1062.83 886.483 1145.64 896.099C1205.5 902.985 1242.17 851.749 1267.79 827.363C1292.38 803.841 1305.93 780.671 1319.4 760.694C1334.77 737.915 1346.57 712.205 1380.43 703.867C1391.08 701.513 1399.96 696.161 1406.56 688.113C1440.26 644.826 1446.67 629.828 1460.84 554.413C1466.69 523.584 1465.87 490.121 1466.37 455.571C1467.47 380.125 1427.94 248.625 1452.79 111.061C1454.16 103.441 1455.82 95.6024 1457.76 87.5467C1472.94 24.9288 1508.23 -58.3653 1599.78 -119.183" stroke="#FE5E00" stroke-width="7" stroke-miterlimit="10"/>
<path d="M34.1655 985.744C87.9664 972.445 133.923 960.251 168.312 949.04C257.102 920.04 274.558 899.538 334.166 906.095C391.619 912.594 424.998 938.563 472.508 931.74C514.272 925.678 537.913 906.688 543.454 898.028C570.64 855.426 554.713 819.326 567.124 759.806C581.826 689.647 635.517 668.078 642.715 648.67C701.894 623.479 782.379 655.992 830.867 675.647C838.359 679.163 845.889 683.113 853.423 687.479C1000.21 757.662 1047.8 875.211 1126.7 882.16C1186.05 887.345 1222.49 835.249 1249.18 810.405C1274.23 786.98 1288.88 764.307 1303.75 745.493C1321.57 723.32 1343.96 706.436 1370.25 695.35C1381.21 690.283 1392.24 688.374 1397.97 681.504C1431.59 638.211 1433.06 618.654 1443.02 539.685C1447.03 507.885 1444.73 473.099 1444.66 437.488C1444.43 363.662 1403.79 227.866 1428.46 86.935C1429.82 79.2538 1431.45 71.2138 1433.37 62.9494C1448.31 -0.751281 1483.57 -85.8909 1575.66 -148.315" stroke="#FE5E00" stroke-width="7" stroke-miterlimit="10"/>
<path d="M41.9306 992.607C94.7404 979.995 140.68 968.933 175.393 958.144C262.086 931.577 281.135 911.939 340.533 918.882C396.899 925.394 430.117 950.22 476.556 944.146C517.365 938.818 541.487 921.771 547.384 913.135C575.106 872.658 562.187 839.319 575.266 781.821C590.521 714.744 641.264 693.127 648.425 671.585C704.58 645.809 779.909 672.437 827.218 688.745C834.328 691.706 841.498 695.113 848.691 698.949C988.043 757.537 1034.39 866.493 1109.37 870.863C1168.27 874.307 1204.41 821.391 1232.21 796.067C1257.7 772.828 1273.47 750.633 1289.74 732.98C1308.28 712.84 1330.62 700.669 1361.8 689.46C1373.62 685.229 1385.23 684.138 1390.76 677.055C1424.32 633.802 1420.88 609.665 1426.56 527.048C1428.77 494.237 1424.98 458.282 1424.26 421.538C1422.8 349.404 1381.05 209.312 1405.29 65.1307C1406.59 57.2681 1408.21 49.1607 1410.1 40.6945C1424.93 -23.8137 1459.91 -110.905 1552.7 -175.125" stroke="#FE5E00" stroke-width="7" stroke-miterlimit="10"/>
<path d="M58.8378 1011.91C110.692 1000.04 156.409 989.893 191.653 979.74C276.451 955.375 297.274 936.836 356.332 943.667C411.585 950.214 444.704 973.923 490.036 968.55C529.996 963.874 554.492 948.852 560.773 940.221C589.102 901.961 579.145 871.269 592.814 815.855C608.442 751.625 656.453 730.243 663.531 706.451C716.746 680.473 790.012 710.403 832.956 713.728C841.227 717.517 848.111 720.433 853.257 722.296C985.218 769.183 1030.39 869.64 1101.39 871.471C1159.8 873.059 1195.65 819.323 1224.57 793.588C1250.49 770.534 1267.39 748.816 1284.99 732.232C1305.12 713.401 1330.21 704.04 1362.44 695.458C1375.11 692.062 1387.31 691.789 1392.78 684.679C1426.31 641.446 1418.11 612.985 1419.34 526.553C1419.86 492.804 1414.55 455.634 1413.13 417.709C1410.5 347.294 1367.55 202.832 1391.5 55.3659C1392.81 47.4448 1394.4 39.1648 1396.25 30.526C1411.06 -34.7162 1446 -123.787 1539.47 -189.427" stroke="#FE5E00" stroke-width="7" stroke-miterlimit="10"/>
<path d="M74.2477 1029.17C125.227 1017.96 170.756 1008.78 206.46 999.17C289.221 977.042 311.958 959.567 370.869 966.81C424.973 973.345 457.993 995.936 502.228 991.332C541.303 987.262 566.029 974.077 572.863 965.617C601.899 929.65 594.842 901.578 609.206 848.166C625.575 787.096 670.414 765.541 677.482 739.594C727.412 712.858 796.575 738.107 837.439 736.914C843.922 739.652 850.339 741.969 856.657 743.853C981.221 779.192 1024.94 870.62 1092.23 870.308C1150.16 870.021 1185.66 815.506 1215.74 789.406C1242.09 766.47 1260.12 745.229 1279.16 729.922C1300.89 712.4 1328.83 705.922 1362.12 699.811C1375.65 697.319 1388.42 697.796 1393.71 690.451C1427.13 647.233 1414.08 614.219 1411 524.159C1409.73 489.554 1403.03 451.134 1400.83 412.089C1397.11 343.487 1352.85 194.582 1376.48 43.7839C1377.54 35.5052 1379.29 27.2959 1381.17 18.5402C1395.54 -47.9316 1430.43 -138.672 1524.33 -206.437" stroke="#FE5E00" stroke-width="7" stroke-miterlimit="10"/>
<path d="M89.7906 1046.31C139.788 1035.86 185.157 1027.63 221.338 1018.69C301.954 998.663 326.306 982.409 385.226 989.719C438.218 996.289 471.138 1017.76 514.266 1013.86C552.545 1010.4 574.709 995.531 584.81 990.826C625.754 971.892 610.359 931.653 625.241 880.453C642.218 822.646 684.054 800.862 691.076 772.713C737.929 745.432 802.792 765.855 841.709 760.042C847.852 762.283 853.902 764.063 859.816 765.372C976.92 789.137 1019.28 871.542 1082.92 868.959C1140.32 866.769 1175.57 811.548 1206.76 784.969C1233.57 762.199 1252.74 741.502 1273.15 727.31C1296.47 711.097 1327.28 707.637 1361.68 704.024C1376.11 702.415 1389.37 703.636 1394.87 696.573C1428.23 653.328 1410.44 615.901 1402.89 522.114C1400.03 486.489 1391.73 446.915 1388.89 406.649C1384.05 339.947 1338.53 186.491 1361.69 32.1737C1362.95 24.0419 1364.45 15.4301 1366.18 6.33858C1380.33 -61.0814 1414.97 -153.949 1509.6 -223.241" stroke="#FE5E00" stroke-width="7" stroke-miterlimit="10"/>
<path d="M105.316 1063.55C154.503 1054.02 199.478 1046.54 236.181 1038.17C314.652 1020.24 340.822 1005.2 399.619 1012.68C451.462 1019.23 484.139 1039.4 526.494 1036.69C563.95 1033.86 586.227 1020.62 596.946 1016.34C638.169 999.576 626.066 962.028 641.563 912.893C658.877 857.885 698.008 836.315 704.957 805.984C748.742 778.226 809.392 793.607 846.079 783.464C851.892 785.22 857.574 786.464 863.077 787.186C972.703 799.465 1013.86 872.725 1073.51 868.135C1130.43 863.846 1165.34 808.002 1197.65 781.078C1224.89 758.426 1245.22 738.254 1267.03 725.224C1291.95 710.32 1325.7 709.972 1360.93 708.481C1376.29 707.869 1390.09 709.794 1395.53 702.704C1428.84 659.5 1406.39 617.667 1394.42 520.044C1389.87 483.482 1380.08 442.739 1376.48 401.266C1370.8 336.328 1323.74 178.457 1346.87 21.183C1348.05 12.8677 1349.6 4.21515 1351.52 -4.77445C1365.51 -73.116 1400 -167.882 1495.27 -238.862" stroke="#FE5E00" stroke-width="7" stroke-miterlimit="10"/>
<path d="M120.806 1080.74C168.778 1071.77 213.789 1065.38 251.023 1057.65C327.357 1041.65 355.374 1028.03 413.976 1035.58C464.732 1042.16 497.464 1061.46 538.532 1059.22C575.139 1057.04 597.529 1045.43 608.893 1041.55C650.547 1027.21 641.547 992.056 657.669 945.051C675.5 893.077 711.719 871.508 718.621 838.974C759.329 810.672 815.599 821.287 850.338 806.524C855.814 807.771 861.118 808.462 866.19 808.59C968.325 809.693 1008.01 873.19 1064.05 866.82C1120.1 860.449 1155.21 804.22 1188.56 776.723C1216.21 754.21 1237.66 734.514 1260.92 722.606C1287.42 709.032 1323.89 711.513 1360.34 712.594C1376.63 712.979 1390.9 715.514 1396.35 708.491C1429.57 665.281 1402.57 619.115 1385.88 517.726C1379.73 480.231 1368.45 438.32 1364.06 395.594C1357.54 332.641 1308.99 170.18 1331.62 9.40728C1332.79 1.04708 1334.41 -7.65971 1336.1 -17.0945C1349.67 -86.5311 1384.07 -183.236 1480.1 -255.697" stroke="#FE5E00" stroke-width="7" stroke-miterlimit="10"/>
<path d="M136.26 1097.88C183.356 1089.59 228.091 1084.15 265.82 1077.01C339.857 1063.08 369.818 1050.72 428.297 1058.45C477.94 1065.05 510.59 1083.15 550.364 1081.53C586.175 1079.97 608.677 1069.99 620.659 1066.52C662.591 1054.36 656.857 1021.92 673.621 976.955C691.907 927.988 725.285 906.513 732.088 871.818C769.657 842.945 821.652 848.713 854.338 829.411C859.499 830.132 864.453 830.293 869.143 829.895C964.123 819.711 1002.08 873.494 1054.53 865.411C1110.32 856.78 1144.73 799.969 1179.41 772.274C1207.41 749.852 1230.03 730.681 1254.64 719.976C1282.73 707.711 1322.27 713.579 1359.53 716.648C1376.9 718.218 1391.5 721.242 1396.92 714.173C1430.14 671.03 1398.56 620.483 1377.24 515.267C1369.46 476.861 1356.91 433.908 1351.48 389.821C1344.18 328.814 1294.07 161.804 1316.37 -2.30059C1317.52 -10.7954 1318.99 -19.7795 1320.77 -29.253C1334.38 -99.3971 1368.61 -198.068 1465.11 -272.451" stroke="#FE5E00" stroke-width="7" stroke-miterlimit="10"/>
<path d="M151.822 1115.17C197.962 1107.6 242.438 1103.04 280.735 1096.58C352.509 1084.54 384.433 1073.58 442.798 1081.54C491.257 1088.09 523.79 1105.16 562.51 1104.2C587.401 1102.97 610.889 1098.85 632.714 1091.87C674.887 1081.84 672.42 1052.1 689.835 1009.25C708.575 963.295 739.093 941.556 745.913 904.908C780.45 875.604 828.127 876.412 858.795 852.618C863.62 852.805 868.192 852.413 872.454 851.445C959.872 830.214 996.314 873.897 1045.15 864.189C1100.31 853.205 1135.42 797.197 1170.33 767.986C1198.08 744.791 1222.55 727.102 1248.55 717.492C1278.16 706.597 1320.74 715.651 1358.92 720.848C1377.09 723.295 1392.33 727.096 1397.72 720.047C1430.86 676.898 1394.8 622.025 1368.79 512.955C1359.42 473.684 1345.29 429.489 1339.12 384.175C1331.04 325.18 1279.34 153.574 1301.32 -13.8624C1302.57 -22.2838 1303.88 -31.5677 1305.64 -41.1982C1318.98 -112.405 1353.13 -212.947 1450.24 -288.999" stroke="#FE5E00" stroke-width="7" stroke-miterlimit="10"/>
<path d="M167.347 1132.4C212.666 1125.47 256.74 1121.81 295.505 1115.97C364.944 1105.72 398.841 1096.23 457.109 1104.34C504.366 1110.91 536.863 1126.89 574.449 1126.65C599.159 1126.05 622.691 1122.93 644.841 1117.31C687.237 1109.27 688.018 1082.34 706.156 1041.69C725.279 998.648 753.022 977.252 759.793 938.179C791.217 908.284 834.62 904.245 863.209 875.932C867.692 875.563 871.892 874.632 875.758 873.151C955.953 840.985 990.646 874.374 1035.92 863.155C1090.37 849.657 1125.3 793.415 1161.42 763.865C1189.64 740.835 1215.21 723.644 1242.61 715.196C1273.87 705.57 1319.3 717.951 1358.47 725.216C1377.54 728.768 1393.3 733.138 1398.66 726.109C1431.74 682.934 1391.22 623.733 1360.47 510.85C1349.52 470.627 1334 425.338 1326.91 378.784C1318.21 321.767 1264.83 145.559 1286.47 -25.2771C1287.57 -33.9534 1288.99 -43.2515 1290.72 -53.0839C1303.91 -125.212 1337.98 -227.714 1435.62 -305.44" stroke="#FE5E00" stroke-width="7" stroke-miterlimit="10"/>
<path d="M182.847 1149.66C227.068 1143.5 271.042 1140.59 310.455 1135.58C377.516 1127.24 413.491 1119.14 471.61 1127.43C517.807 1134 550.26 1149.05 586.631 1149.37C610.994 1149.17 634.385 1146.84 656.652 1142.4C699.262 1136.29 703.364 1112.25 722.074 1073.77C741.678 1033.71 766.581 1012.41 773.27 971.09C801.626 940.718 840.72 931.785 867.245 898.866C871.397 897.959 875.226 896.489 878.684 894.476C951.728 851.468 984.34 874.297 1026.24 861.714C1079.95 845.654 1114.74 789.225 1152.15 759.43C1180.77 736.539 1207.46 719.825 1236.26 712.539C1269.12 704.222 1317.45 719.89 1357.6 729.243C1377.62 733.927 1393.77 738.745 1399.2 731.81C1432.23 688.676 1387.29 625.04 1351.76 508.365C1339.24 467.257 1322.48 420.837 1314.31 373.031C1305.08 317.979 1250.06 137.437 1271.23 -36.9853C1272.28 -45.7758 1273.68 -55.2086 1275.42 -65.1959C1288.42 -138.225 1322.28 -242.652 1420.72 -321.966" stroke="#FE5E00" stroke-width="7" stroke-miterlimit="10"/>
<path d="M198.372 1166.89C241.674 1161.52 285.361 1159.27 325.37 1155.16C390.157 1148.41 428.08 1142.02 486.039 1150.44C531.114 1156.97 563.405 1170.87 598.715 1172.01C622.873 1172.39 646.23 1170.95 668.671 1167.71C711.494 1163.52 718.828 1142.36 738.332 1105.96C758.318 1068.82 780.444 1047.64 787.122 1004.16C812.401 973.243 847.185 959.416 871.729 922.052C875.407 920.394 878.845 918.374 882.022 916.006C953.485 869.513 978.463 874.338 1017.01 860.525C1069.76 841.623 1103.93 784.329 1143.22 755.174C1172.8 733.26 1200.13 716.211 1230.33 710.088C1264.78 703.08 1316 722.122 1357.14 733.476C1378.11 739.291 1394.79 744.679 1400.16 737.717C1433.15 694.603 1383.86 626.626 1343.51 506.199C1329.42 464.139 1311.3 416.671 1302.1 367.418C1292.2 314.451 1235.4 129.011 1256.25 -48.4534C1257.28 -57.4009 1258.66 -66.939 1260.39 -77.0678C1273.09 -151.139 1306.89 -257.458 1405.84 -338.581" stroke="#FE5E00" stroke-width="7" stroke-miterlimit="10"/>
<path d="M213.863 1184.08C256.173 1179.39 299.555 1177.91 340.177 1174.59C402.574 1169.45 442.524 1164.71 500.397 1173.35C544.323 1179.87 576.524 1192.72 610.754 1194.54C642.472 1196.27 665.069 1193.82 680.69 1193.01C723.681 1190.63 734.283 1172.41 754.546 1138.26C772.744 1107.2 788.213 1073.46 800.859 1037.24C815.434 998.44 831.302 958.792 876.035 945.226C879.778 943.581 882.879 940.996 885.218 937.572C944.355 873.173 972.372 874.319 1007.67 859.351C1059.34 837.398 1093.7 780.406 1134.21 750.913C1164.26 729.009 1192.68 712.613 1224.24 707.605C1260.44 702.16 1314.44 724.37 1356.57 737.723C1378.46 744.691 1395.65 750.58 1400.98 743.572C1433.86 700.472 1380.24 628.066 1334.99 503.948C1319.32 460.936 1300 412.453 1289.67 361.9C1279.35 311.347 1220.95 121.09 1241.09 -60.0005C1242.15 -68.9459 1243.56 -78.7559 1245.17 -89.0186C1257.71 -164.012 1291.36 -272.229 1390.95 -355.108" stroke="#FE5E00" stroke-width="7" stroke-miterlimit="10"/>
<path d="M229.388 1201.32C270.744 1197.36 313.595 1196.28 355.154 1194.18C415.134 1190.68 457.175 1187.62 514.898 1196.44C557.807 1202.85 589.813 1214.74 622.909 1217.27C653.841 1219.69 676.592 1218.54 692.709 1218.31C735.894 1217.72 749.674 1202.43 770.723 1170.51C791.412 1139.17 800.575 1112.43 814.631 1070.37C827.273 1032.46 852.606 1007.54 880.366 968.38C882.916 964.779 886.199 962.406 888.476 959.163C940.749 884.077 966.209 874.207 998.327 858.176C1048.71 832.959 1083.53 776.509 1125.16 746.671C1155.65 724.886 1185.23 709.014 1218.12 705.074C1255.77 700.751 1312.74 726.497 1355.92 741.877C1378.74 749.997 1396.55 756.306 1401.75 749.399C1434.58 706.34 1376.61 629.439 1326.45 501.407C1309.23 457.423 1288.81 407.997 1277.22 356.026C1266.34 307.1 1206.19 112.591 1225.98 -71.8107C1227.02 -80.8907 1228.3 -90.7537 1229.96 -101.279C1242.32 -177.174 1275.87 -287.331 1376.01 -371.903" stroke="#FE5E00" stroke-width="7" stroke-miterlimit="10"/>
<path d="M245.01 1218.41C285.411 1215.18 328.046 1214.87 370.021 1213.42C427.602 1211.46 471.571 1209.97 529.315 1219.16C570.97 1225.64 603.018 1236.37 635.044 1239.65C665.091 1242.67 687.854 1242.86 704.716 1243.32C748.121 1244.51 765.081 1232.14 786.952 1202.5C807.925 1174 815.289 1148.27 828.536 1103.4C839.324 1066.32 860.26 1036.72 884.84 991.499C887.039 987.496 889.86 984.358 891.866 980.653C937.364 894.884 966.853 882.515 989.117 856.9C1027.34 813.651 1069.84 775.403 1116.35 742.402C1147.23 720.687 1177.95 705.36 1212.38 702.615C1251.64 699.601 1311.44 728.762 1355.58 746.163C1379.31 755.455 1397.51 762.28 1402.83 755.36C1435.59 712.274 1373.3 630.944 1318.46 499.415C1299.73 454.505 1278.25 404.097 1265.32 350.699C1253.99 303.831 1191.89 104.634 1211.39 -83.0521C1212.38 -92.2463 1213.57 -102.183 1215.31 -112.925C1227.44 -189.834 1260.84 -301.89 1361.66 -388.104" stroke="#FE5E00" stroke-width="7" stroke-miterlimit="10"/>
<path d="M256.439 1230.59C295.884 1228.1 338.123 1228.31 380.908 1227.8C436.044 1227.28 482.214 1227.83 539.823 1236.89C580.211 1243.15 612.35 1253.07 643.233 1257.01C672.467 1260.72 695.269 1262.22 712.715 1263.29C756.384 1266.13 776.443 1256.76 799.136 1229.39C820.42 1203.71 826.245 1179.17 838.135 1130.94C847.086 1094.59 863.876 1060.43 885.035 1009.1C886.873 1004.63 889.19 1000.84 890.915 996.603C929.762 900.204 954.885 874.63 975.636 850.177C1013.48 805.366 1056.1 766.054 1103.17 732.545C1134.44 710.969 1166.32 696.166 1202.05 694.665C1243 693.033 1305.51 725.489 1350.65 744.581C1375.25 755.066 1393.95 762.48 1399.31 755.451C1431.99 712.36 1365.44 626.539 1305.64 491.294C1285.32 445.363 1262.94 394.005 1248.58 339.244C1236.82 294.346 1172.77 90.5281 1191.95 -100.49C1192.9 -109.799 1194.17 -119.951 1195.82 -130.766C1207.73 -208.624 1241.03 -322.619 1342.43 -410.548" stroke="#FE5E00" stroke-width="7" stroke-miterlimit="10"/>
<path d="M263.235 1236.63C301.725 1234.87 343.513 1235.43 386.915 1236.17C439.606 1237.08 487.892 1239.28 545.238 1248.77C584.612 1255.14 616.562 1263.93 646.303 1268.52C674.75 1272.92 697.518 1275.64 715.791 1277.56C759.725 1282.06 782.848 1275.63 806.372 1250.61C827.93 1227.71 832.575 1204.59 842.929 1152.99C850.214 1117.55 862.829 1078.61 880.398 1021.25C881.939 1016.33 883.777 1011.86 885.168 1007.14C917.4 899.932 937.835 861.175 957.315 837.924C995.279 792.707 1039.95 748.084 1085.18 717.272C1116.81 695.721 1149.87 681.508 1187.03 681.149C1229.47 680.754 1294.82 716.692 1341.28 737.984C1366.82 749.689 1386.06 757.429 1391.31 750.482C1424 707.457 1353.1 617.073 1288.43 478.184C1266.57 431.281 1243.38 378.979 1227.44 322.821C1215.31 279.919 1149.29 71.5013 1168.14 -122.849C1169.11 -132.245 1170.3 -142.559 1171.92 -153.576C1183.67 -232.355 1216.82 -348.248 1318.75 -438.006" stroke="#FE5E00" stroke-width="7" stroke-miterlimit="10"/>
<path d="M269.911 1242.24C307.436 1241.15 348.8 1242.04 392.97 1244.05C444.239 1245.92 496.936 1251.29 550.843 1260.13C589.131 1266.51 620.895 1274.4 649.589 1279.5C677.269 1284.71 699.995 1288.58 718.986 1291.22C763.248 1297.41 789.37 1293.89 813.762 1271.27C835.585 1251.06 839.345 1229.6 847.878 1174.48C853.315 1139.49 862.033 1096.08 875.942 1032.8C877.123 1027.42 878.483 1022.27 879.603 1017.08C905.192 899.094 918.791 844.853 939.148 825.104C981.78 783.984 1020.85 732.469 1067.38 701.412C1099.37 679.885 1133.67 666.358 1172.19 667.115C1216.23 668.028 1284.51 707.611 1332.02 730.774C1358.41 743.692 1378.22 751.893 1383.51 744.993C1416.07 701.915 1340.8 607.056 1271.32 464.482C1244.75 411.49 1222.93 358.167 1206.34 305.691C1193.8 264.671 1125.81 51.7205 1144.32 -145.941C1145.24 -155.451 1146.41 -165.9 1148.04 -177.072C1159.56 -256.799 1192.61 -374.631 1295.24 -465.964" stroke="#FE5E00" stroke-width="7" stroke-miterlimit="10"/>
<path d="M276.318 1247.61C366.077 1246.77 459.607 1254.67 556.154 1271.26C711.505 1298.01 772.802 1329.83 820.821 1291.65C855.772 1263.82 843.657 1230.76 871.129 1044.11C891.787 903.727 902.242 833.699 920.686 812.065C987.33 734.81 1058.36 647.995 1157.02 652.813C1228.13 656.273 1360.4 758.2 1375.08 738.862C1418.53 681.449 1262.43 523.311 1184.9 288.227C1171.98 249.068 1102.04 31.6522 1120.21 -169.341C1127.28 -247.354 1153.54 -388.242 1271.34 -494.37" stroke="#FE5E00" stroke-width="7" stroke-miterlimit="10"/>
</svg>
